solid OpenSCAD_Model
  facet normal -1 0 0
    outer loop
      vertex 35 0 3
      vertex 35 55 26
      vertex 35 55 3
    endloop
  endfacet
  facet normal -1 -0 0
    outer loop
      vertex 35 55 26
      vertex 35 0 3
      vertex 35 0 26
    endloop
  endfacet
  facet normal -0 0 1
    outer loop
      vertex 0 55 3
      vertex 35 0 3
      vertex 35 55 3
    endloop
  endfacet
  facet normal 0 0 1
    outer loop
      vertex 35 0 3
      vertex 0 55 3
      vertex 0 0 3
    endloop
  endfacet
  facet normal -1 0 0
    outer loop
      vertex 0 89 0
      vertex 0 86 3
      vertex 0 89 26
    endloop
  endfacet
  facet normal -1 0 0
    outer loop
      vertex 0 89 0
      vertex 0 58 3
      vertex 0 86 3
    endloop
  endfacet
  facet normal -1 0 0
    outer loop
      vertex 0 58 3
      vertex 0 55 3
      vertex 0 58 26
    endloop
  endfacet
  facet normal -1 0 0
    outer loop
      vertex 0 89 0
      vertex 0 55 3
      vertex 0 58 3
    endloop
  endfacet
  facet normal -1 0 0
    outer loop
      vertex 0 0 0
      vertex 0 55 3
      vertex 0 89 0
    endloop
  endfacet
  facet normal -1 -0 0
    outer loop
      vertex 0 55 3
      vertex 0 0 0
      vertex 0 0 3
    endloop
  endfacet
  facet normal -1 -0 0
    outer loop
      vertex 0 89 26
      vertex 0 86 3
      vertex 0 86 26
    endloop
  endfacet
  facet normal -1 -0 0
    outer loop
      vertex 0 58 26
      vertex 0 55 3
      vertex 0 55 26
    endloop
  endfacet
  facet normal 0 -1 0
    outer loop
      vertex 0 55 3
      vertex 35 55 26
      vertex 0 55 26
    endloop
  endfacet
  facet normal 0 -1 -0
    outer loop
      vertex 35 55 26
      vertex 0 55 3
      vertex 35 55 3
    endloop
  endfacet
  facet normal 0 -1 0
    outer loop
      vertex 0 0 0
      vertex 35 0 3
      vertex 0 0 3
    endloop
  endfacet
  facet normal 0 -1 -0
    outer loop
      vertex 35 0 3
      vertex 0 0 0
      vertex 38 0 3
    endloop
  endfacet
  facet normal 0 -1 0
    outer loop
      vertex 190.5 0 0
      vertex 38 0 3
      vertex 0 0 0
    endloop
  endfacet
  facet normal 0 -1 0
    outer loop
      vertex 38 0 3
      vertex 190.5 0 0
      vertex 190.5 0 3
    endloop
  endfacet
  facet normal 0 -1 0
    outer loop
      vertex 35 0 3
      vertex 38 0 26
      vertex 35 0 26
    endloop
  endfacet
  facet normal 0 -1 -0
    outer loop
      vertex 38 0 26
      vertex 35 0 3
      vertex 38 0 3
    endloop
  endfacet
  facet normal -0 0 1
    outer loop
      vertex 38 55 3
      vertex 190.5 0 3
      vertex 190.5 55 3
    endloop
  endfacet
  facet normal 0 0 1
    outer loop
      vertex 190.5 0 3
      vertex 38 55 3
      vertex 38 0 3
    endloop
  endfacet
  facet normal 1 -0 0
    outer loop
      vertex 38 0 26
      vertex 38 55 3
      vertex 38 55 26
    endloop
  endfacet
  facet normal 1 0 0
    outer loop
      vertex 38 55 3
      vertex 38 0 26
      vertex 38 0 3
    endloop
  endfacet
  facet normal 0 -1 0
    outer loop
      vertex 38 55 3
      vertex 190.5 55 26
      vertex 38 55 26
    endloop
  endfacet
  facet normal 0 -1 -0
    outer loop
      vertex 190.5 55 26
      vertex 38 55 3
      vertex 190.5 55 3
    endloop
  endfacet
  facet normal -1 0 0
    outer loop
      vertex 71 58 3
      vertex 71 86 26
      vertex 71 86 3
    endloop
  endfacet
  facet normal -1 -0 0
    outer loop
      vertex 71 86 26
      vertex 71 58 3
      vertex 71 58 26
    endloop
  endfacet
  facet normal -0 0 1
    outer loop
      vertex 0 86 3
      vertex 71 58 3
      vertex 71 86 3
    endloop
  endfacet
  facet normal 0 0 1
    outer loop
      vertex 71 58 3
      vertex 0 86 3
      vertex 0 58 3
    endloop
  endfacet
  facet normal 0 -1 0
    outer loop
      vertex 0 86 3
      vertex 71 86 26
      vertex 0 86 26
    endloop
  endfacet
  facet normal 0 -1 -0
    outer loop
      vertex 71 86 26
      vertex 0 86 3
      vertex 71 86 3
    endloop
  endfacet
  facet normal 0 1 -0
    outer loop
      vertex 71 58 3
      vertex 0 58 26
      vertex 71 58 26
    endloop
  endfacet
  facet normal 0 1 0
    outer loop
      vertex 0 58 26
      vertex 71 58 3
      vertex 0 58 3
    endloop
  endfacet
  facet normal -1 0 0
    outer loop
      vertex 116.5 58 3
      vertex 116.5 86 26
      vertex 116.5 86 3
    endloop
  endfacet
  facet normal -1 -0 0
    outer loop
      vertex 116.5 86 26
      vertex 116.5 58 3
      vertex 116.5 58 26
    endloop
  endfacet
  facet normal -0 0 1
    outer loop
      vertex 74 86 3
      vertex 116.5 58 3
      vertex 116.5 86 3
    endloop
  endfacet
  facet normal 0 0 1
    outer loop
      vertex 116.5 58 3
      vertex 74 86 3
      vertex 74 58 3
    endloop
  endfacet
  facet normal 1 -0 0
    outer loop
      vertex 74 58 26
      vertex 74 86 3
      vertex 74 86 26
    endloop
  endfacet
  facet normal 1 0 0
    outer loop
      vertex 74 86 3
      vertex 74 58 26
      vertex 74 58 3
    endloop
  endfacet
  facet normal 0 -1 0
    outer loop
      vertex 74 86 3
      vertex 116.5 86 26
      vertex 74 86 26
    endloop
  endfacet
  facet normal 0 -1 -0
    outer loop
      vertex 116.5 86 26
      vertex 74 86 3
      vertex 116.5 86 3
    endloop
  endfacet
  facet normal 0 1 -0
    outer loop
      vertex 116.5 58 3
      vertex 74 58 26
      vertex 116.5 58 26
    endloop
  endfacet
  facet normal 0 1 0
    outer loop
      vertex 74 58 26
      vertex 116.5 58 3
      vertex 74 58 3
    endloop
  endfacet
  facet normal 1 0 0
    outer loop
      vertex 190.5 58 26
      vertex 190.5 55 26
      vertex 190.5 58 3
    endloop
  endfacet
  facet normal 1 0 0
    outer loop
      vertex 190.5 86 3
      vertex 190.5 89 26
      vertex 190.5 86 26
    endloop
  endfacet
  facet normal 1 0 0
    outer loop
      vertex 190.5 89 26
      vertex 190.5 86 3
      vertex 190.5 89 0
    endloop
  endfacet
  facet normal 1 -0 0
    outer loop
      vertex 190.5 58 3
      vertex 190.5 89 0
      vertex 190.5 86 3
    endloop
  endfacet
  facet normal 1 0 0
    outer loop
      vertex 190.5 55 3
      vertex 190.5 58 3
      vertex 190.5 55 26
    endloop
  endfacet
  facet normal 1 -0 0
    outer loop
      vertex 190.5 55 3
      vertex 190.5 89 0
      vertex 190.5 58 3
    endloop
  endfacet
  facet normal 1 0 0
    outer loop
      vertex 190.5 0 0
      vertex 190.5 55 3
      vertex 190.5 0 3
    endloop
  endfacet
  facet normal 1 0 0
    outer loop
      vertex 190.5 55 3
      vertex 190.5 0 0
      vertex 190.5 89 0
    endloop
  endfacet
  facet normal -0 0 1
    outer loop
      vertex 119.5 86 3
      vertex 190.5 58 3
      vertex 190.5 86 3
    endloop
  endfacet
  facet normal 0 0 1
    outer loop
      vertex 190.5 58 3
      vertex 119.5 86 3
      vertex 119.5 58 3
    endloop
  endfacet
  facet normal 1 -0 0
    outer loop
      vertex 119.5 58 26
      vertex 119.5 86 3
      vertex 119.5 86 26
    endloop
  endfacet
  facet normal 1 0 0
    outer loop
      vertex 119.5 86 3
      vertex 119.5 58 26
      vertex 119.5 58 3
    endloop
  endfacet
  facet normal 0 -1 0
    outer loop
      vertex 119.5 86 3
      vertex 190.5 86 26
      vertex 119.5 86 26
    endloop
  endfacet
  facet normal 0 -1 -0
    outer loop
      vertex 190.5 86 26
      vertex 119.5 86 3
      vertex 190.5 86 3
    endloop
  endfacet
  facet normal 0 1 -0
    outer loop
      vertex 190.5 58 3
      vertex 119.5 58 26
      vertex 190.5 58 26
    endloop
  endfacet
  facet normal 0 1 0
    outer loop
      vertex 119.5 58 26
      vertex 190.5 58 3
      vertex 119.5 58 3
    endloop
  endfacet
  facet normal 0 0 1
    outer loop
      vertex 190.5 89 26
      vertex 119.5 86 26
      vertex 190.5 86 26
    endloop
  endfacet
  facet normal 0 0 1
    outer loop
      vertex 119.5 86 26
      vertex 116.5 86 26
      vertex 119.5 58 26
    endloop
  endfacet
  facet normal 0 0 1
    outer loop
      vertex 190.5 89 26
      vertex 116.5 86 26
      vertex 119.5 86 26
    endloop
  endfacet
  facet normal 0 0 1
    outer loop
      vertex 190.5 89 26
      vertex 74 86 26
      vertex 116.5 86 26
    endloop
  endfacet
  facet normal 0 0 1
    outer loop
      vertex 74 86 26
      vertex 71 86 26
      vertex 74 58 26
    endloop
  endfacet
  facet normal -0 0 1
    outer loop
      vertex 0 89 26
      vertex 74 86 26
      vertex 190.5 89 26
    endloop
  endfacet
  facet normal 0 0 1
    outer loop
      vertex 74 86 26
      vertex 0 89 26
      vertex 71 86 26
    endloop
  endfacet
  facet normal 0 0 1
    outer loop
      vertex 71 86 26
      vertex 0 89 26
      vertex 0 86 26
    endloop
  endfacet
  facet normal -0 0 1
    outer loop
      vertex 119.5 58 26
      vertex 190.5 55 26
      vertex 190.5 58 26
    endloop
  endfacet
  facet normal 0 0 1
    outer loop
      vertex 116.5 58 26
      vertex 119.5 58 26
      vertex 116.5 86 26
    endloop
  endfacet
  facet normal -0 0 1
    outer loop
      vertex 116.5 58 26
      vertex 190.5 55 26
      vertex 119.5 58 26
    endloop
  endfacet
  facet normal 0 0 1
    outer loop
      vertex 38 55 26
      vertex 116.5 58 26
      vertex 74 58 26
    endloop
  endfacet
  facet normal 0 0 1
    outer loop
      vertex 71 58 26
      vertex 74 58 26
      vertex 71 86 26
    endloop
  endfacet
  facet normal 0 0 1
    outer loop
      vertex 38 55 26
      vertex 74 58 26
      vertex 71 58 26
    endloop
  endfacet
  facet normal 0 0 1
    outer loop
      vertex 116.5 58 26
      vertex 38 55 26
      vertex 190.5 55 26
    endloop
  endfacet
  facet normal 0 0 1
    outer loop
      vertex 38 55 26
      vertex 35 55 26
      vertex 38 0 26
    endloop
  endfacet
  facet normal 0 0 1
    outer loop
      vertex 71 58 26
      vertex 35 55 26
      vertex 38 55 26
    endloop
  endfacet
  facet normal -0 0 1
    outer loop
      vertex 0 58 26
      vertex 35 55 26
      vertex 71 58 26
    endloop
  endfacet
  facet normal 0 0 1
    outer loop
      vertex 35 55 26
      vertex 0 58 26
      vertex 0 55 26
    endloop
  endfacet
  facet normal 0 0 1
    outer loop
      vertex 38 0 26
      vertex 35 55 26
      vertex 35 0 26
    endloop
  endfacet
  facet normal 0 0 -1
    outer loop
      vertex 0 0 0
      vertex 190.5 89 0
      vertex 190.5 0 0
    endloop
  endfacet
  facet normal -0 0 -1
    outer loop
      vertex 190.5 89 0
      vertex 0 0 0
      vertex 0 89 0
    endloop
  endfacet
  facet normal 0 1 -0
    outer loop
      vertex 190.5 89 0
      vertex 0 89 26
      vertex 190.5 89 26
    endloop
  endfacet
  facet normal 0 1 0
    outer loop
      vertex 0 89 26
      vertex 190.5 89 0
      vertex 0 89 0
    endloop
  endfacet
endsolid OpenSCAD_Model
