solid OpenSCAD_Model
  facet normal -0.866029 0.499994 0
    outer loop
      vertex 11.8282 3.86825 2
      vertex 12.8093 5.56759 38.5
      vertex 12.8093 5.56759 2
    endloop
  endfacet
  facet normal -0.866029 0.499994 0
    outer loop
      vertex 12.8093 5.56759 38.5
      vertex 11.8282 3.86825 2
      vertex 11.8282 3.86825 38.5
    endloop
  endfacet
  facet normal -0.866022 -0.500006 0
    outer loop
      vertex 12.8093 9.43241 2
      vertex 11.8282 11.1317 38.5
      vertex 11.8282 11.1317 2
    endloop
  endfacet
  facet normal -0.866022 -0.500006 0
    outer loop
      vertex 11.8282 11.1317 38.5
      vertex 12.8093 9.43241 2
      vertex 12.8093 9.43241 38.5
    endloop
  endfacet
  facet normal -0.984867 -0.173314 0
    outer loop
      vertex 12.8414 9.25 2
      vertex 12.8093 9.43241 38.5
      vertex 12.8093 9.43241 2
    endloop
  endfacet
  facet normal -0.984867 -0.173314 0
    outer loop
      vertex 12.8093 9.43241 38.5
      vertex 12.8414 9.25 2
      vertex 12.8414 9.25 38.5
    endloop
  endfacet
  facet normal -0.642777 -0.766053 0
    outer loop
      vertex 10.325 12.393 2
      vertex 11.8282 11.1317 38.5
      vertex 10.325 12.393 38.5
    endloop
  endfacet
  facet normal -0.642777 -0.766053 -0
    outer loop
      vertex 11.8282 11.1317 38.5
      vertex 10.325 12.393 2
      vertex 11.8282 11.1317 2
    endloop
  endfacet
  facet normal 0.984807 -0.17365 0
    outer loop
      vertex 1.85 7.5 38.5
      vertex 2.19074 9.43241 2
      vertex 2.19074 9.43241 38.5
    endloop
  endfacet
  facet normal 0.984807 -0.17365 0
    outer loop
      vertex 2.19074 9.43241 2
      vertex 1.85 7.5 38.5
      vertex 1.85 7.5 2
    endloop
  endfacet
  facet normal 0.86602 -0.500009 0
    outer loop
      vertex 2.19074 9.43241 38.5
      vertex 3.17185 11.1317 2
      vertex 3.17185 11.1317 38.5
    endloop
  endfacet
  facet normal 0.86602 -0.500009 0
    outer loop
      vertex 3.17185 11.1317 2
      vertex 2.19074 9.43241 38.5
      vertex 2.19074 9.43241 2
    endloop
  endfacet
  facet normal 0.866026 0.499998 0
    outer loop
      vertex 3.17185 3.86825 38.5
      vertex 2.19074 5.56759 2
      vertex 2.19074 5.56759 38.5
    endloop
  endfacet
  facet normal 0.866026 0.499998 0
    outer loop
      vertex 2.19074 5.56759 2
      vertex 3.17185 3.86825 38.5
      vertex 3.17185 3.86825 2
    endloop
  endfacet
  facet normal -0.342056 -0.93968 0
    outer loop
      vertex 8.48111 13.0642 2
      vertex 10.325 12.393 38.5
      vertex 8.48111 13.0642 38.5
    endloop
  endfacet
  facet normal -0.342056 -0.93968 -0
    outer loop
      vertex 10.325 12.393 38.5
      vertex 8.48111 13.0642 2
      vertex 10.325 12.393 2
    endloop
  endfacet
  facet normal -0.642774 0.766056 0
    outer loop
      vertex 11.8282 3.86825 2
      vertex 10.325 2.60696 38.5
      vertex 11.8282 3.86825 38.5
    endloop
  endfacet
  facet normal -0.642774 0.766056 0
    outer loop
      vertex 10.325 2.60696 38.5
      vertex 11.8282 3.86825 2
      vertex 10.325 2.60696 2
    endloop
  endfacet
  facet normal -0.984867 0.173314 0
    outer loop
      vertex 12.8093 5.56759 2
      vertex 12.8414 5.75 38.5
      vertex 12.8414 5.75 2
    endloop
  endfacet
  facet normal -0.984867 0.173314 0
    outer loop
      vertex 12.8414 5.75 38.5
      vertex 12.8093 5.56759 2
      vertex 12.8093 5.56759 38.5
    endloop
  endfacet
  facet normal 0 -1 0
    outer loop
      vertex 6.51889 13.0642 2
      vertex 8.48111 13.0642 38.5
      vertex 6.51889 13.0642 38.5
    endloop
  endfacet
  facet normal 0 -1 -0
    outer loop
      vertex 8.48111 13.0642 38.5
      vertex 6.51889 13.0642 2
      vertex 8.48111 13.0642 2
    endloop
  endfacet
  facet normal 0 1 -0
    outer loop
      vertex 8.48111 1.93584 2
      vertex 6.51889 1.93584 38.5
      vertex 8.48111 1.93584 38.5
    endloop
  endfacet
  facet normal 0 1 0
    outer loop
      vertex 6.51889 1.93584 38.5
      vertex 8.48111 1.93584 2
      vertex 6.51889 1.93584 2
    endloop
  endfacet
  facet normal 0.984807 0.17365 0
    outer loop
      vertex 2.19074 5.56759 38.5
      vertex 1.85 7.5 2
      vertex 1.85 7.5 38.5
    endloop
  endfacet
  facet normal 0.984807 0.17365 0
    outer loop
      vertex 1.85 7.5 2
      vertex 2.19074 5.56759 38.5
      vertex 2.19074 5.56759 2
    endloop
  endfacet
  facet normal -0.34202 0.939693 0
    outer loop
      vertex 10.325 2.60696 2
      vertex 8.48111 1.93584 38.5
      vertex 10.325 2.60696 38.5
    endloop
  endfacet
  facet normal -0.34202 0.939693 0
    outer loop
      vertex 8.48111 1.93584 38.5
      vertex 10.325 2.60696 2
      vertex 8.48111 1.93584 2
    endloop
  endfacet
  facet normal 0 0 1
    outer loop
      vertex 11.8282 11.1317 2
      vertex 12.8414 9.25 2
      vertex 12.8093 9.43241 2
    endloop
  endfacet
  facet normal 0 0 1
    outer loop
      vertex 5.75 9.25 2
      vertex 11.8282 11.1317 2
      vertex 10.325 12.393 2
    endloop
  endfacet
  facet normal 0 0 1
    outer loop
      vertex 5.75 9.25 2
      vertex 10.325 12.393 2
      vertex 8.48111 13.0642 2
    endloop
  endfacet
  facet normal 0 0 1
    outer loop
      vertex 5.75 9.25 2
      vertex 8.48111 13.0642 2
      vertex 6.51889 13.0642 2
    endloop
  endfacet
  facet normal 0 0 1
    outer loop
      vertex 11.8282 11.1317 2
      vertex 5.75 9.25 2
      vertex 12.8414 9.25 2
    endloop
  endfacet
  facet normal -0 0 1
    outer loop
      vertex 3.17185 11.1317 2
      vertex 5.75 9.25 2
      vertex 4.675 12.393 2
    endloop
  endfacet
  facet normal -0 0 1
    outer loop
      vertex 4.675 12.393 2
      vertex 5.75 9.25 2
      vertex 6.51889 13.0642 2
    endloop
  endfacet
  facet normal 0 0 1
    outer loop
      vertex 12.8414 5.75 2
      vertex 11.8282 3.86825 2
      vertex 12.8093 5.56759 2
    endloop
  endfacet
  facet normal -0 0 1
    outer loop
      vertex 5.75 5.75 2
      vertex 11.8282 3.86825 2
      vertex 12.8414 5.75 2
    endloop
  endfacet
  facet normal 0 0 1
    outer loop
      vertex 11.8282 3.86825 2
      vertex 5.75 5.75 2
      vertex 10.325 2.60696 2
    endloop
  endfacet
  facet normal 0 0 1
    outer loop
      vertex 10.325 2.60696 2
      vertex 5.75 5.75 2
      vertex 8.48111 1.93584 2
    endloop
  endfacet
  facet normal 0 0 1
    outer loop
      vertex 8.48111 1.93584 2
      vertex 5.75 5.75 2
      vertex 6.51889 1.93584 2
    endloop
  endfacet
  facet normal 0 0 1
    outer loop
      vertex 5.75 5.75 2
      vertex 4.675 2.60696 2
      vertex 6.51889 1.93584 2
    endloop
  endfacet
  facet normal -0 0 1
    outer loop
      vertex 2.19074 9.43241 2
      vertex 5.75 9.25 2
      vertex 3.17185 11.1317 2
    endloop
  endfacet
  facet normal 0 0 1
    outer loop
      vertex 1.85 7.5 2
      vertex 5.75 9.25 2
      vertex 2.19074 9.43241 2
    endloop
  endfacet
  facet normal 0 0 1
    outer loop
      vertex 5.75 5.75 2
      vertex 3.17185 3.86825 2
      vertex 4.675 2.60696 2
    endloop
  endfacet
  facet normal 0 0 1
    outer loop
      vertex 5.75 9.25 2
      vertex 1.85 7.5 2
      vertex 5.75 5.75 2
    endloop
  endfacet
  facet normal 0 0 1
    outer loop
      vertex 5.75 5.75 2
      vertex 2.19074 5.56759 2
      vertex 3.17185 3.86825 2
    endloop
  endfacet
  facet normal 0 0 1
    outer loop
      vertex 5.75 5.75 2
      vertex 1.85 7.5 2
      vertex 2.19074 5.56759 2
    endloop
  endfacet
  facet normal 0.64279 -0.766043 0
    outer loop
      vertex 3.17185 11.1317 2
      vertex 4.675 12.393 38.5
      vertex 3.17185 11.1317 38.5
    endloop
  endfacet
  facet normal 0.64279 -0.766043 0
    outer loop
      vertex 4.675 12.393 38.5
      vertex 3.17185 11.1317 2
      vertex 4.675 12.393 2
    endloop
  endfacet
  facet normal 0.342056 -0.93968 0
    outer loop
      vertex 4.675 12.393 2
      vertex 6.51889 13.0642 38.5
      vertex 4.675 12.393 38.5
    endloop
  endfacet
  facet normal 0.342056 -0.93968 0
    outer loop
      vertex 6.51889 13.0642 38.5
      vertex 4.675 12.393 2
      vertex 6.51889 13.0642 2
    endloop
  endfacet
  facet normal 0.642787 0.766045 -0
    outer loop
      vertex 4.675 2.60696 2
      vertex 3.17185 3.86825 38.5
      vertex 4.675 2.60696 38.5
    endloop
  endfacet
  facet normal 0.642787 0.766045 0
    outer loop
      vertex 3.17185 3.86825 38.5
      vertex 4.675 2.60696 2
      vertex 3.17185 3.86825 2
    endloop
  endfacet
  facet normal 0.34202 0.939693 -0
    outer loop
      vertex 6.51889 1.93584 2
      vertex 4.675 2.60696 38.5
      vertex 6.51889 1.93584 38.5
    endloop
  endfacet
  facet normal 0.34202 0.939693 0
    outer loop
      vertex 4.675 2.60696 38.5
      vertex 6.51889 1.93584 2
      vertex 4.675 2.60696 2
    endloop
  endfacet
  facet normal 1 -0 0
    outer loop
      vertex 15 9.25 38.5
      vertex 15 15 0
      vertex 15 15 38.5
    endloop
  endfacet
  facet normal 1 0 0
    outer loop
      vertex 15 15 0
      vertex 15 9.25 38.5
      vertex 15 9.25 0
    endloop
  endfacet
  facet normal 1 -0 0
    outer loop
      vertex 15 0 38.5
      vertex 15 5.75 0
      vertex 15 5.75 38.5
    endloop
  endfacet
  facet normal 1 0 0
    outer loop
      vertex 15 5.75 0
      vertex 15 0 38.5
      vertex 15 0 0
    endloop
  endfacet
  facet normal 0 0 -1
    outer loop
      vertex 15 0 0
      vertex 5.75 5.75 0
      vertex 15 5.75 0
    endloop
  endfacet
  facet normal -0 0 -1
    outer loop
      vertex 5.75 5.75 0
      vertex 0 0 0
      vertex 5.75 9.25 0
    endloop
  endfacet
  facet normal 0 0 -1
    outer loop
      vertex 0 0 0
      vertex 5.75 5.75 0
      vertex 15 0 0
    endloop
  endfacet
  facet normal 0 0 -1
    outer loop
      vertex 5.75 9.25 0
      vertex 15 15 0
      vertex 15 9.25 0
    endloop
  endfacet
  facet normal 0 0 -1
    outer loop
      vertex 5.75 9.25 0
      vertex 0 15 0
      vertex 15 15 0
    endloop
  endfacet
  facet normal 0 0 -1
    outer loop
      vertex 0 15 0
      vertex 5.75 9.25 0
      vertex 0 0 0
    endloop
  endfacet
  facet normal 1 -0 0
    outer loop
      vertex 5.75 5.75 2
      vertex 5.75 9.25 0
      vertex 5.75 9.25 2
    endloop
  endfacet
  facet normal 1 0 0
    outer loop
      vertex 5.75 9.25 0
      vertex 5.75 5.75 2
      vertex 5.75 5.75 0
    endloop
  endfacet
  facet normal 0 -1 0
    outer loop
      vertex 5.75 9.25 2
      vertex 5.75 9.25 0
      vertex 12.8414 9.25 2
    endloop
  endfacet
  facet normal 0 -1 0
    outer loop
      vertex 12.8414 9.25 2
      vertex 15 9.25 38.5
      vertex 12.8414 9.25 38.5
    endloop
  endfacet
  facet normal 0 -1 0
    outer loop
      vertex 12.8414 9.25 2
      vertex 15 9.25 0
      vertex 15 9.25 38.5
    endloop
  endfacet
  facet normal 0 -1 0
    outer loop
      vertex 15 9.25 0
      vertex 12.8414 9.25 2
      vertex 5.75 9.25 0
    endloop
  endfacet
  facet normal 0 1 0
    outer loop
      vertex 15 5.75 38.5
      vertex 12.8414 5.75 2
      vertex 12.8414 5.75 38.5
    endloop
  endfacet
  facet normal 0 1 -0
    outer loop
      vertex 15 5.75 0
      vertex 12.8414 5.75 2
      vertex 15 5.75 38.5
    endloop
  endfacet
  facet normal 0 1 0
    outer loop
      vertex 5.75 5.75 0
      vertex 12.8414 5.75 2
      vertex 15 5.75 0
    endloop
  endfacet
  facet normal 0 1 0
    outer loop
      vertex 12.8414 5.75 2
      vertex 5.75 5.75 0
      vertex 5.75 5.75 2
    endloop
  endfacet
  facet normal -0 0 1
    outer loop
      vertex 11.8282 11.1317 38.5
      vertex 15 9.25 38.5
      vertex 15 15 38.5
    endloop
  endfacet
  facet normal 0 0 1
    outer loop
      vertex 15 9.25 38.5
      vertex 12.8093 9.43241 38.5
      vertex 12.8414 9.25 38.5
    endloop
  endfacet
  facet normal 0 0 1
    outer loop
      vertex 15 9.25 38.5
      vertex 11.8282 11.1317 38.5
      vertex 12.8093 9.43241 38.5
    endloop
  endfacet
  facet normal 0 0 1
    outer loop
      vertex 15 15 38.5
      vertex 10.325 12.393 38.5
      vertex 11.8282 11.1317 38.5
    endloop
  endfacet
  facet normal 0 0 1
    outer loop
      vertex 15 15 38.5
      vertex 8.48111 13.0642 38.5
      vertex 10.325 12.393 38.5
    endloop
  endfacet
  facet normal 0 0 1
    outer loop
      vertex 15 15 38.5
      vertex 6.51889 13.0642 38.5
      vertex 8.48111 13.0642 38.5
    endloop
  endfacet
  facet normal 0 0 1
    outer loop
      vertex 2.19074 9.43241 38.5
      vertex 0 15 38.5
      vertex 1.85 7.5 38.5
    endloop
  endfacet
  facet normal 0 0 1
    outer loop
      vertex 3.17185 11.1317 38.5
      vertex 0 15 38.5
      vertex 2.19074 9.43241 38.5
    endloop
  endfacet
  facet normal 0 0 1
    outer loop
      vertex 4.675 12.393 38.5
      vertex 0 15 38.5
      vertex 3.17185 11.1317 38.5
    endloop
  endfacet
  facet normal 0 0 1
    outer loop
      vertex 6.51889 13.0642 38.5
      vertex 0 15 38.5
      vertex 4.675 12.393 38.5
    endloop
  endfacet
  facet normal -0 0 1
    outer loop
      vertex 0 15 38.5
      vertex 6.51889 13.0642 38.5
      vertex 15 15 38.5
    endloop
  endfacet
  facet normal 0 0 1
    outer loop
      vertex 12.8093 5.56759 38.5
      vertex 15 5.75 38.5
      vertex 12.8414 5.75 38.5
    endloop
  endfacet
  facet normal 0 0 1
    outer loop
      vertex 11.8282 3.86825 38.5
      vertex 15 5.75 38.5
      vertex 12.8093 5.56759 38.5
    endloop
  endfacet
  facet normal 0 0 1
    outer loop
      vertex 15 5.75 38.5
      vertex 11.8282 3.86825 38.5
      vertex 15 0 38.5
    endloop
  endfacet
  facet normal -0 0 1
    outer loop
      vertex 10.325 2.60696 38.5
      vertex 15 0 38.5
      vertex 11.8282 3.86825 38.5
    endloop
  endfacet
  facet normal -0 0 1
    outer loop
      vertex 8.48111 1.93584 38.5
      vertex 15 0 38.5
      vertex 10.325 2.60696 38.5
    endloop
  endfacet
  facet normal -0 0 1
    outer loop
      vertex 6.51889 1.93584 38.5
      vertex 15 0 38.5
      vertex 8.48111 1.93584 38.5
    endloop
  endfacet
  facet normal 0 0 1
    outer loop
      vertex 0 0 38.5
      vertex 1.85 7.5 38.5
      vertex 0 15 38.5
    endloop
  endfacet
  facet normal 0 0 1
    outer loop
      vertex 6.51889 1.93584 38.5
      vertex 0 0 38.5
      vertex 15 0 38.5
    endloop
  endfacet
  facet normal 0 0 1
    outer loop
      vertex 4.675 2.60696 38.5
      vertex 0 0 38.5
      vertex 6.51889 1.93584 38.5
    endloop
  endfacet
  facet normal 0 0 1
    outer loop
      vertex 3.17185 3.86825 38.5
      vertex 0 0 38.5
      vertex 4.675 2.60696 38.5
    endloop
  endfacet
  facet normal 0 0 1
    outer loop
      vertex 2.19074 5.56759 38.5
      vertex 0 0 38.5
      vertex 3.17185 3.86825 38.5
    endloop
  endfacet
  facet normal 0 0 1
    outer loop
      vertex 1.85 7.5 38.5
      vertex 0 0 38.5
      vertex 2.19074 5.56759 38.5
    endloop
  endfacet
  facet normal -1 0 0
    outer loop
      vertex 0 0 0
      vertex 0 15 38.5
      vertex 0 15 0
    endloop
  endfacet
  facet normal -1 -0 0
    outer loop
      vertex 0 15 38.5
      vertex 0 0 0
      vertex 0 0 38.5
    endloop
  endfacet
  facet normal 0 1 -0
    outer loop
      vertex 15 15 0
      vertex 0 15 38.5
      vertex 15 15 38.5
    endloop
  endfacet
  facet normal 0 1 0
    outer loop
      vertex 0 15 38.5
      vertex 15 15 0
      vertex 0 15 0
    endloop
  endfacet
  facet normal 0 -1 0
    outer loop
      vertex 0 0 0
      vertex 15 0 38.5
      vertex 0 0 38.5
    endloop
  endfacet
  facet normal 0 -1 -0
    outer loop
      vertex 15 0 38.5
      vertex 0 0 0
      vertex 15 0 0
    endloop
  endfacet
endsolid OpenSCAD_Model
