solid OpenSCAD_Model
  facet normal 0.0825795 -0.996584 0
    outer loop
      vertex -0.487218 0.0201511 0
      vertex 0 0.0605232 45
      vertex -0.487218 0.0201511 45
    endloop
  endfacet
  facet normal 0.0825795 -0.996584 0
    outer loop
      vertex 0 0.0605232 45
      vertex -0.487218 0.0201511 0
      vertex 0 0.0605232 0
    endloop
  endfacet
  facet normal 0.082433 0.996597 -0
    outer loop
      vertex 0 11.7395 0
      vertex -0.487218 11.7798 45
      vertex 0 11.7395 45
    endloop
  endfacet
  facet normal 0.082433 0.996597 0
    outer loop
      vertex -0.487218 11.7798 45
      vertex 0 11.7395 0
      vertex -0.487218 11.7798 0
    endloop
  endfacet
  facet normal -0.245486 -0.9694 0
    outer loop
      vertex -2.37 0.496937 0
      vertex -0.487218 0.0201511 45
      vertex -2.37 0.496937 45
    endloop
  endfacet
  facet normal -0.245486 -0.9694 -0
    outer loop
      vertex -0.487218 0.0201511 45
      vertex -2.37 0.496937 0
      vertex -0.487218 0.0201511 0
    endloop
  endfacet
  facet normal -0.789141 -0.614212 0
    outer loop
      vertex -3.99596 1.55923 0
      vertex -5.18889 3.09191 45
      vertex -5.18889 3.09191 0
    endloop
  endfacet
  facet normal -0.789141 -0.614212 0
    outer loop
      vertex -5.18889 3.09191 45
      vertex -3.99596 1.55923 0
      vertex -3.99596 1.55923 45
    endloop
  endfacet
  facet normal -0.546951 0.837165 0
    outer loop
      vertex -2.37 11.3031 0
      vertex -3.99596 10.2408 45
      vertex -2.37 11.3031 45
    endloop
  endfacet
  facet normal -0.546951 0.837165 0
    outer loop
      vertex -3.99596 10.2408 45
      vertex -2.37 11.3031 0
      vertex -3.99596 10.2408 0
    endloop
  endfacet
  facet normal -0.245444 0.969411 0
    outer loop
      vertex -0.487218 11.7798 0
      vertex -2.37 11.3031 45
      vertex -0.487218 11.7798 45
    endloop
  endfacet
  facet normal -0.245444 0.969411 0
    outer loop
      vertex -2.37 11.3031 45
      vertex -0.487218 11.7798 0
      vertex -2.37 11.3031 0
    endloop
  endfacet
  facet normal 0 0 1
    outer loop
      vertex -2.37 11.3031 45
      vertex 0 11.7395 45
      vertex -0.487218 11.7798 45
    endloop
  endfacet
  facet normal 0 0 1
    outer loop
      vertex -3.99596 10.2408 45
      vertex 0 11.7395 45
      vertex -2.37 11.3031 45
    endloop
  endfacet
  facet normal 0 0 1
    outer loop
      vertex -5.18889 8.70809 45
      vertex 0 11.7395 45
      vertex -3.99596 10.2408 45
    endloop
  endfacet
  facet normal 0 0 1
    outer loop
      vertex 0 0.0605232 45
      vertex -2.37 0.496937 45
      vertex -0.487218 0.0201511 45
    endloop
  endfacet
  facet normal 0 0 1
    outer loop
      vertex 0 11.7395 45
      vertex -5.18889 8.70809 45
      vertex 0 0.0605232 45
    endloop
  endfacet
  facet normal 0 0 1
    outer loop
      vertex 0 0.0605232 45
      vertex -3.99596 1.55923 45
      vertex -2.37 0.496937 45
    endloop
  endfacet
  facet normal -0 0 1
    outer loop
      vertex -5.18889 3.09191 45
      vertex 0 0.0605232 45
      vertex -5.18889 8.70809 45
    endloop
  endfacet
  facet normal 0 0 1
    outer loop
      vertex 0 0.0605232 45
      vertex -5.18889 3.09191 45
      vertex -3.99596 1.55923 45
    endloop
  endfacet
  facet normal -0 0 1
    outer loop
      vertex -5.81953 6.87111 45
      vertex -5.18889 3.09191 45
      vertex -5.18889 8.70809 45
    endloop
  endfacet
  facet normal 0 0 1
    outer loop
      vertex -5.18889 3.09191 45
      vertex -5.81953 6.87111 45
      vertex -5.81953 4.92889 45
    endloop
  endfacet
  facet normal 0 0 1
    outer loop
      vertex 112.86 7.73818 45
      vertex 120 11.7395 45
      vertex 120 11.8 45
    endloop
  endfacet
  facet normal 0 0 1
    outer loop
      vertex 120 11.7395 45
      vertex 113.4 5.9 45
      vertex 120 0.0605233 45
    endloop
  endfacet
  facet normal -0 0 1
    outer loop
      vertex 112.86 4.06182 45
      vertex 120 0.0605233 45
      vertex 113.4 5.9 45
    endloop
  endfacet
  facet normal 0 0 1
    outer loop
      vertex 120 11.7395 45
      vertex 112.86 7.73818 45
      vertex 113.4 5.9 45
    endloop
  endfacet
  facet normal 0 0 1
    outer loop
      vertex 120 11.8 45
      vertex 111.412 8.99275 45
      vertex 112.86 7.73818 45
    endloop
  endfacet
  facet normal 0 0 1
    outer loop
      vertex 120 11.8 45
      vertex 109.516 9.26539 45
      vertex 111.412 8.99275 45
    endloop
  endfacet
  facet normal 0 0 1
    outer loop
      vertex 106.738 6.85789 45
      vertex 93.4 5.9 45
      vertex 106.738 4.94211 45
    endloop
  endfacet
  facet normal -0 0 1
    outer loop
      vertex 92.8603 7.73818 45
      vertex 106.738 6.85789 45
      vertex 107.773 8.46955 45
    endloop
  endfacet
  facet normal -0 0 1
    outer loop
      vertex 91.4124 8.99275 45
      vertex 107.773 8.46955 45
      vertex 109.516 9.26539 45
    endloop
  endfacet
  facet normal 0 0 1
    outer loop
      vertex 91.4124 8.99275 45
      vertex 109.516 9.26539 45
      vertex 120 11.8 45
    endloop
  endfacet
  facet normal 0 0 1
    outer loop
      vertex 106.738 6.85789 45
      vertex 92.8603 7.73818 45
      vertex 93.4 5.9 45
    endloop
  endfacet
  facet normal 0 0 1
    outer loop
      vertex 107.773 8.46955 45
      vertex 91.4124 8.99275 45
      vertex 92.8603 7.73818 45
    endloop
  endfacet
  facet normal 0 0 1
    outer loop
      vertex 120 11.8 45
      vertex 89.5161 9.26539 45
      vertex 91.4124 8.99275 45
    endloop
  endfacet
  facet normal 0 0 1
    outer loop
      vertex 86.7377 6.85789 45
      vertex 73.4 5.9 45
      vertex 86.7377 4.94211 45
    endloop
  endfacet
  facet normal -0 0 1
    outer loop
      vertex 72.8603 7.73818 45
      vertex 86.7377 6.85789 45
      vertex 87.7735 8.46955 45
    endloop
  endfacet
  facet normal -0 0 1
    outer loop
      vertex 71.4124 8.99275 45
      vertex 87.7735 8.46955 45
      vertex 89.5161 9.26539 45
    endloop
  endfacet
  facet normal 0 0 1
    outer loop
      vertex 86.7377 6.85789 45
      vertex 72.8603 7.73818 45
      vertex 73.4 5.9 45
    endloop
  endfacet
  facet normal 0 0 1
    outer loop
      vertex 87.7735 8.46955 45
      vertex 71.4124 8.99275 45
      vertex 72.8603 7.73818 45
    endloop
  endfacet
  facet normal 0 0 1
    outer loop
      vertex 69.5161 9.26539 45
      vertex 89.5161 9.26539 45
      vertex 120 11.8 45
    endloop
  endfacet
  facet normal 0 0 1
    outer loop
      vertex 89.5161 9.26539 45
      vertex 69.5161 9.26539 45
      vertex 71.4124 8.99275 45
    endloop
  endfacet
  facet normal 0 0 1
    outer loop
      vertex 66.7377 6.85789 45
      vertex 53.4 5.9 45
      vertex 66.7377 4.94211 45
    endloop
  endfacet
  facet normal -0 0 1
    outer loop
      vertex 52.8603 7.73818 45
      vertex 66.7377 6.85789 45
      vertex 67.7735 8.46955 45
    endloop
  endfacet
  facet normal -0 0 1
    outer loop
      vertex 51.4124 8.99275 45
      vertex 67.7735 8.46955 45
      vertex 69.5161 9.26539 45
    endloop
  endfacet
  facet normal 0 0 1
    outer loop
      vertex 66.7377 6.85789 45
      vertex 52.8603 7.73818 45
      vertex 53.4 5.9 45
    endloop
  endfacet
  facet normal 0 0 1
    outer loop
      vertex 67.7735 8.46955 45
      vertex 51.4124 8.99275 45
      vertex 52.8603 7.73818 45
    endloop
  endfacet
  facet normal 0 0 1
    outer loop
      vertex 49.5161 9.26539 45
      vertex 69.5161 9.26539 45
      vertex 120 11.8 45
    endloop
  endfacet
  facet normal 0 0 1
    outer loop
      vertex 69.5161 9.26539 45
      vertex 49.5161 9.26539 45
      vertex 51.4124 8.99275 45
    endloop
  endfacet
  facet normal 0 0 1
    outer loop
      vertex 46.7377 6.85789 45
      vertex 33.4 5.9 45
      vertex 46.7377 4.94211 45
    endloop
  endfacet
  facet normal -0 0 1
    outer loop
      vertex 32.8603 7.73818 45
      vertex 46.7377 6.85789 45
      vertex 47.7735 8.46955 45
    endloop
  endfacet
  facet normal -0 0 1
    outer loop
      vertex 31.4124 8.99275 45
      vertex 47.7735 8.46955 45
      vertex 49.5161 9.26539 45
    endloop
  endfacet
  facet normal 0 0 1
    outer loop
      vertex 46.7377 6.85789 45
      vertex 32.8603 7.73818 45
      vertex 33.4 5.9 45
    endloop
  endfacet
  facet normal 0 0 1
    outer loop
      vertex 47.7735 8.46955 45
      vertex 31.4124 8.99275 45
      vertex 32.8603 7.73818 45
    endloop
  endfacet
  facet normal -0 0 1
    outer loop
      vertex 0 11.8 45
      vertex 49.5161 9.26539 45
      vertex 120 11.8 45
    endloop
  endfacet
  facet normal 0 0 1
    outer loop
      vertex 49.5161 9.26539 45
      vertex 29.5161 9.26539 45
      vertex 31.4124 8.99275 45
    endloop
  endfacet
  facet normal 0 0 1
    outer loop
      vertex 26.7377 6.85789 45
      vertex 13.4 5.9 45
      vertex 26.7377 4.94211 45
    endloop
  endfacet
  facet normal -0 0 1
    outer loop
      vertex 12.8603 7.73818 45
      vertex 26.7377 6.85789 45
      vertex 27.7735 8.46955 45
    endloop
  endfacet
  facet normal -0 0 1
    outer loop
      vertex 11.4124 8.99275 45
      vertex 27.7735 8.46955 45
      vertex 29.5161 9.26539 45
    endloop
  endfacet
  facet normal 0 0 1
    outer loop
      vertex 26.7377 6.85789 45
      vertex 12.8603 7.73818 45
      vertex 13.4 5.9 45
    endloop
  endfacet
  facet normal 0 0 1
    outer loop
      vertex 27.7735 8.46955 45
      vertex 11.4124 8.99275 45
      vertex 12.8603 7.73818 45
    endloop
  endfacet
  facet normal 0 0 1
    outer loop
      vertex 49.5161 9.26539 45
      vertex 0 11.8 45
      vertex 29.5161 9.26539 45
    endloop
  endfacet
  facet normal 0 0 1
    outer loop
      vertex 29.5161 9.26539 45
      vertex 0 11.8 45
      vertex 11.4124 8.99275 45
    endloop
  endfacet
  facet normal 0 0 1
    outer loop
      vertex 7.77347 8.46955 45
      vertex 0 11.7395 45
      vertex 6.73772 6.85789 45
    endloop
  endfacet
  facet normal -0 0 1
    outer loop
      vertex 0 11.7395 45
      vertex 7.77347 8.46955 45
      vertex 0 11.8 45
    endloop
  endfacet
  facet normal 0 0 1
    outer loop
      vertex 9.51613 9.26539 45
      vertex 0 11.8 45
      vertex 7.77347 8.46955 45
    endloop
  endfacet
  facet normal 0 0 1
    outer loop
      vertex 11.4124 8.99275 45
      vertex 0 11.8 45
      vertex 9.51613 9.26539 45
    endloop
  endfacet
  facet normal 0 0 1
    outer loop
      vertex 125.58 7.81573 45
      vertex 125.58 3.98427 45
      vertex 125.9 5.9 45
    endloop
  endfacet
  facet normal 0 0 1
    outer loop
      vertex 124.656 9.52385 45
      vertex 125.58 3.98427 45
      vertex 125.58 7.81573 45
    endloop
  endfacet
  facet normal 0 0 1
    outer loop
      vertex 124.656 9.52385 45
      vertex 124.656 2.27614 45
      vertex 125.58 3.98427 45
    endloop
  endfacet
  facet normal 0 0 1
    outer loop
      vertex 120 11.7395 45
      vertex 124.656 9.52385 45
      vertex 123.227 10.8393 45
    endloop
  endfacet
  facet normal 0 0 1
    outer loop
      vertex 124.656 9.52385 45
      vertex 120 11.7395 45
      vertex 124.656 2.27614 45
    endloop
  endfacet
  facet normal 0 0 1
    outer loop
      vertex 120 11.7395 45
      vertex 123.227 10.8393 45
      vertex 121.448 11.6195 45
    endloop
  endfacet
  facet normal 0 0 1
    outer loop
      vertex 120 0.0605233 45
      vertex 124.656 2.27614 45
      vertex 120 11.7395 45
    endloop
  endfacet
  facet normal 0 0 1
    outer loop
      vertex 124.656 2.27614 45
      vertex 120 0.0605233 45
      vertex 123.227 0.960717 45
    endloop
  endfacet
  facet normal 0 0 1
    outer loop
      vertex 123.227 0.960717 45
      vertex 120 0.0605233 45
      vertex 121.448 0.180538 45
    endloop
  endfacet
  facet normal 0 0 1
    outer loop
      vertex 120 0.0605233 45
      vertex 112.86 4.06182 45
      vertex 120 0 45
    endloop
  endfacet
  facet normal -0 0 1
    outer loop
      vertex 111.412 2.80725 45
      vertex 120 0 45
      vertex 112.86 4.06182 45
    endloop
  endfacet
  facet normal -0 0 1
    outer loop
      vertex 109.516 2.53461 45
      vertex 120 0 45
      vertex 111.412 2.80725 45
    endloop
  endfacet
  facet normal 0 0 1
    outer loop
      vertex 92.8603 4.06182 45
      vertex 106.738 4.94211 45
      vertex 93.4 5.9 45
    endloop
  endfacet
  facet normal 0 0 1
    outer loop
      vertex 106.738 4.94211 45
      vertex 92.8603 4.06182 45
      vertex 107.773 3.33045 45
    endloop
  endfacet
  facet normal 0 0 1
    outer loop
      vertex 91.4124 2.80725 45
      vertex 107.773 3.33045 45
      vertex 92.8603 4.06182 45
    endloop
  endfacet
  facet normal 0 0 1
    outer loop
      vertex 107.773 3.33045 45
      vertex 91.4124 2.80725 45
      vertex 109.516 2.53461 45
    endloop
  endfacet
  facet normal 0 0 1
    outer loop
      vertex 109.516 2.53461 45
      vertex 91.4124 2.80725 45
      vertex 120 0 45
    endloop
  endfacet
  facet normal -0 0 1
    outer loop
      vertex 89.5161 2.53461 45
      vertex 120 0 45
      vertex 91.4124 2.80725 45
    endloop
  endfacet
  facet normal 0 0 1
    outer loop
      vertex 72.8603 4.06182 45
      vertex 86.7377 4.94211 45
      vertex 73.4 5.9 45
    endloop
  endfacet
  facet normal 0 0 1
    outer loop
      vertex 86.7377 4.94211 45
      vertex 72.8603 4.06182 45
      vertex 87.7735 3.33045 45
    endloop
  endfacet
  facet normal 0 0 1
    outer loop
      vertex 71.4124 2.80725 45
      vertex 87.7735 3.33045 45
      vertex 72.8603 4.06182 45
    endloop
  endfacet
  facet normal 0 0 1
    outer loop
      vertex 87.7735 3.33045 45
      vertex 71.4124 2.80725 45
      vertex 89.5161 2.53461 45
    endloop
  endfacet
  facet normal 0 0 1
    outer loop
      vertex 69.5161 2.53461 45
      vertex 89.5161 2.53461 45
      vertex 71.4124 2.80725 45
    endloop
  endfacet
  facet normal 0 0 1
    outer loop
      vertex 89.5161 2.53461 45
      vertex 69.5161 2.53461 45
      vertex 120 0 45
    endloop
  endfacet
  facet normal 0 0 1
    outer loop
      vertex 52.8603 4.06182 45
      vertex 66.7377 4.94211 45
      vertex 53.4 5.9 45
    endloop
  endfacet
  facet normal 0 0 1
    outer loop
      vertex 66.7377 4.94211 45
      vertex 52.8603 4.06182 45
      vertex 67.7735 3.33045 45
    endloop
  endfacet
  facet normal 0 0 1
    outer loop
      vertex 51.4124 2.80725 45
      vertex 67.7735 3.33045 45
      vertex 52.8603 4.06182 45
    endloop
  endfacet
  facet normal 0 0 1
    outer loop
      vertex 67.7735 3.33045 45
      vertex 51.4124 2.80725 45
      vertex 69.5161 2.53461 45
    endloop
  endfacet
  facet normal 0 0 1
    outer loop
      vertex 49.5161 2.53461 45
      vertex 69.5161 2.53461 45
      vertex 51.4124 2.80725 45
    endloop
  endfacet
  facet normal 0 0 1
    outer loop
      vertex 69.5161 2.53461 45
      vertex 49.5161 2.53461 45
      vertex 120 0 45
    endloop
  endfacet
  facet normal 0 0 1
    outer loop
      vertex 32.8603 4.06182 45
      vertex 46.7377 4.94211 45
      vertex 33.4 5.9 45
    endloop
  endfacet
  facet normal 0 0 1
    outer loop
      vertex 46.7377 4.94211 45
      vertex 32.8603 4.06182 45
      vertex 47.7735 3.33045 45
    endloop
  endfacet
  facet normal 0 0 1
    outer loop
      vertex 31.4124 2.80725 45
      vertex 47.7735 3.33045 45
      vertex 32.8603 4.06182 45
    endloop
  endfacet
  facet normal 0 0 1
    outer loop
      vertex 47.7735 3.33045 45
      vertex 31.4124 2.80725 45
      vertex 49.5161 2.53461 45
    endloop
  endfacet
  facet normal 0 0 1
    outer loop
      vertex 29.5161 2.53461 45
      vertex 49.5161 2.53461 45
      vertex 31.4124 2.80725 45
    endloop
  endfacet
  facet normal 0 0 1
    outer loop
      vertex 0 0 45
      vertex 49.5161 2.53461 45
      vertex 29.5161 2.53461 45
    endloop
  endfacet
  facet normal 0 0 1
    outer loop
      vertex 12.8603 4.06182 45
      vertex 26.7377 4.94211 45
      vertex 13.4 5.9 45
    endloop
  endfacet
  facet normal 0 0 1
    outer loop
      vertex 26.7377 4.94211 45
      vertex 12.8603 4.06182 45
      vertex 27.7735 3.33045 45
    endloop
  endfacet
  facet normal 0 0 1
    outer loop
      vertex 11.4124 2.80725 45
      vertex 27.7735 3.33045 45
      vertex 12.8603 4.06182 45
    endloop
  endfacet
  facet normal 0 0 1
    outer loop
      vertex 27.7735 3.33045 45
      vertex 11.4124 2.80725 45
      vertex 29.5161 2.53461 45
    endloop
  endfacet
  facet normal 0 0 1
    outer loop
      vertex 0 0 45
      vertex 29.5161 2.53461 45
      vertex 11.4124 2.80725 45
    endloop
  endfacet
  facet normal 0 0 1
    outer loop
      vertex 0 0 45
      vertex 11.4124 2.80725 45
      vertex 9.51613 2.53461 45
    endloop
  endfacet
  facet normal 0 0 1
    outer loop
      vertex 6.73772 6.85789 45
      vertex 0 11.7395 45
      vertex 6.73772 4.94211 45
    endloop
  endfacet
  facet normal 0 0 1
    outer loop
      vertex 0 0.0605232 45
      vertex 6.73772 4.94211 45
      vertex 0 11.7395 45
    endloop
  endfacet
  facet normal 0 0 1
    outer loop
      vertex 6.73772 4.94211 45
      vertex 0 0.0605232 45
      vertex 7.77347 3.33045 45
    endloop
  endfacet
  facet normal 0 0 1
    outer loop
      vertex 0 0 45
      vertex 7.77347 3.33045 45
      vertex 0 0.0605232 45
    endloop
  endfacet
  facet normal 0 0 1
    outer loop
      vertex 7.77347 3.33045 45
      vertex 0 0 45
      vertex 9.51613 2.53461 45
    endloop
  endfacet
  facet normal 0 0 1
    outer loop
      vertex 49.5161 2.53461 45
      vertex 0 0 45
      vertex 120 0 45
    endloop
  endfacet
  facet normal -1 0 0
    outer loop
      vertex -5.81953 4.92889 0
      vertex -5.81953 6.87111 45
      vertex -5.81953 6.87111 0
    endloop
  endfacet
  facet normal -1 -0 0
    outer loop
      vertex -5.81953 6.87111 45
      vertex -5.81953 4.92889 0
      vertex -5.81953 4.92889 45
    endloop
  endfacet
  facet normal -0.945817 0.324701 0
    outer loop
      vertex -5.81953 6.87111 0
      vertex -5.18889 8.70809 45
      vertex -5.18889 8.70809 0
    endloop
  endfacet
  facet normal -0.945817 0.324701 0
    outer loop
      vertex -5.18889 8.70809 45
      vertex -5.81953 6.87111 0
      vertex -5.81953 6.87111 45
    endloop
  endfacet
  facet normal -0.789147 0.614204 0
    outer loop
      vertex -5.18889 8.70809 0
      vertex -3.99596 10.2408 45
      vertex -3.99596 10.2408 0
    endloop
  endfacet
  facet normal -0.789147 0.614204 0
    outer loop
      vertex -3.99596 10.2408 45
      vertex -5.18889 8.70809 0
      vertex -5.18889 8.70809 45
    endloop
  endfacet
  facet normal -0.945817 -0.324701 0
    outer loop
      vertex -5.18889 3.09191 0
      vertex -5.81953 4.92889 45
      vertex -5.81953 4.92889 0
    endloop
  endfacet
  facet normal -0.945817 -0.324701 0
    outer loop
      vertex -5.81953 4.92889 45
      vertex -5.18889 3.09191 0
      vertex -5.18889 3.09191 45
    endloop
  endfacet
  facet normal -0.546948 -0.837166 0
    outer loop
      vertex -3.99596 1.55923 0
      vertex -2.37 0.496937 45
      vertex -3.99596 1.55923 45
    endloop
  endfacet
  facet normal -0.546948 -0.837166 -0
    outer loop
      vertex -2.37 0.496937 45
      vertex -3.99596 1.55923 0
      vertex -2.37 0.496937 0
    endloop
  endfacet
  facet normal 0 0 -1
    outer loop
      vertex -2.37 0.496937 0
      vertex 0 0.0605232 0
      vertex -0.487218 0.0201511 0
    endloop
  endfacet
  facet normal 0 0 -1
    outer loop
      vertex -3.99596 1.55923 0
      vertex 0 0.0605232 0
      vertex -2.37 0.496937 0
    endloop
  endfacet
  facet normal 0 0 -1
    outer loop
      vertex -5.18889 3.09191 0
      vertex 0 0.0605232 0
      vertex -3.99596 1.55923 0
    endloop
  endfacet
  facet normal -0 0 -1
    outer loop
      vertex 0 11.7395 0
      vertex -2.37 11.3031 0
      vertex -0.487218 11.7798 0
    endloop
  endfacet
  facet normal 0 0 -1
    outer loop
      vertex 0 0.0605232 0
      vertex -5.18889 3.09191 0
      vertex 0 11.7395 0
    endloop
  endfacet
  facet normal 0 0 -1
    outer loop
      vertex 0 11.7395 0
      vertex -3.99596 10.2408 0
      vertex -2.37 11.3031 0
    endloop
  endfacet
  facet normal 0 0 -1
    outer loop
      vertex -5.18889 8.70809 0
      vertex 0 11.7395 0
      vertex -5.18889 3.09191 0
    endloop
  endfacet
  facet normal 0 0 -1
    outer loop
      vertex 0 11.7395 0
      vertex -5.18889 8.70809 0
      vertex -3.99596 10.2408 0
    endloop
  endfacet
  facet normal 0 0 -1
    outer loop
      vertex -5.81953 4.92889 0
      vertex -5.18889 8.70809 0
      vertex -5.18889 3.09191 0
    endloop
  endfacet
  facet normal 0 0 -1
    outer loop
      vertex -5.18889 8.70809 0
      vertex -5.81953 4.92889 0
      vertex -5.81953 6.87111 0
    endloop
  endfacet
  facet normal 0 0 -1
    outer loop
      vertex 112.86 4.06182 0
      vertex 120 0.0605233 0
      vertex 120 0 0
    endloop
  endfacet
  facet normal 0 0 -1
    outer loop
      vertex 120 0.0605233 0
      vertex 113.4 5.9 0
      vertex 120 11.7395 0
    endloop
  endfacet
  facet normal 0 0 -1
    outer loop
      vertex 112.86 7.73818 0
      vertex 120 11.7395 0
      vertex 113.4 5.9 0
    endloop
  endfacet
  facet normal 0 0 -1
    outer loop
      vertex 120 0.0605233 0
      vertex 112.86 4.06182 0
      vertex 113.4 5.9 0
    endloop
  endfacet
  facet normal 0 0 -1
    outer loop
      vertex 120 0 0
      vertex 111.412 2.80725 0
      vertex 112.86 4.06182 0
    endloop
  endfacet
  facet normal 0 0 -1
    outer loop
      vertex 120 0 0
      vertex 109.516 2.53461 0
      vertex 111.412 2.80725 0
    endloop
  endfacet
  facet normal 0 0 -1
    outer loop
      vertex 106.738 4.94211 0
      vertex 93.4 5.9 0
      vertex 106.738 6.85789 0
    endloop
  endfacet
  facet normal 0 0 -1
    outer loop
      vertex 92.8603 4.06182 0
      vertex 106.738 4.94211 0
      vertex 107.773 3.33045 0
    endloop
  endfacet
  facet normal 0 0 -1
    outer loop
      vertex 91.4124 2.80725 0
      vertex 107.773 3.33045 0
      vertex 109.516 2.53461 0
    endloop
  endfacet
  facet normal 0 0 -1
    outer loop
      vertex 91.4124 2.80725 0
      vertex 109.516 2.53461 0
      vertex 120 0 0
    endloop
  endfacet
  facet normal -0 0 -1
    outer loop
      vertex 106.738 4.94211 0
      vertex 92.8603 4.06182 0
      vertex 93.4 5.9 0
    endloop
  endfacet
  facet normal -0 0 -1
    outer loop
      vertex 107.773 3.33045 0
      vertex 91.4124 2.80725 0
      vertex 92.8603 4.06182 0
    endloop
  endfacet
  facet normal 0 0 -1
    outer loop
      vertex 120 0 0
      vertex 89.5161 2.53461 0
      vertex 91.4124 2.80725 0
    endloop
  endfacet
  facet normal 0 0 -1
    outer loop
      vertex 86.7377 4.94211 0
      vertex 73.4 5.9 0
      vertex 86.7377 6.85789 0
    endloop
  endfacet
  facet normal 0 0 -1
    outer loop
      vertex 72.8603 4.06182 0
      vertex 86.7377 4.94211 0
      vertex 87.7735 3.33045 0
    endloop
  endfacet
  facet normal 0 0 -1
    outer loop
      vertex 71.4124 2.80725 0
      vertex 87.7735 3.33045 0
      vertex 89.5161 2.53461 0
    endloop
  endfacet
  facet normal -0 0 -1
    outer loop
      vertex 86.7377 4.94211 0
      vertex 72.8603 4.06182 0
      vertex 73.4 5.9 0
    endloop
  endfacet
  facet normal -0 0 -1
    outer loop
      vertex 87.7735 3.33045 0
      vertex 71.4124 2.80725 0
      vertex 72.8603 4.06182 0
    endloop
  endfacet
  facet normal 0 0 -1
    outer loop
      vertex 69.5161 2.53461 0
      vertex 89.5161 2.53461 0
      vertex 120 0 0
    endloop
  endfacet
  facet normal 0 0 -1
    outer loop
      vertex 89.5161 2.53461 0
      vertex 69.5161 2.53461 0
      vertex 71.4124 2.80725 0
    endloop
  endfacet
  facet normal 0 0 -1
    outer loop
      vertex 66.7377 4.94211 0
      vertex 53.4 5.9 0
      vertex 66.7377 6.85789 0
    endloop
  endfacet
  facet normal 0 0 -1
    outer loop
      vertex 52.8603 4.06182 0
      vertex 66.7377 4.94211 0
      vertex 67.7735 3.33045 0
    endloop
  endfacet
  facet normal 0 0 -1
    outer loop
      vertex 51.4124 2.80725 0
      vertex 67.7735 3.33045 0
      vertex 69.5161 2.53461 0
    endloop
  endfacet
  facet normal -0 0 -1
    outer loop
      vertex 66.7377 4.94211 0
      vertex 52.8603 4.06182 0
      vertex 53.4 5.9 0
    endloop
  endfacet
  facet normal -0 0 -1
    outer loop
      vertex 67.7735 3.33045 0
      vertex 51.4124 2.80725 0
      vertex 52.8603 4.06182 0
    endloop
  endfacet
  facet normal 0 0 -1
    outer loop
      vertex 49.5161 2.53461 0
      vertex 69.5161 2.53461 0
      vertex 120 0 0
    endloop
  endfacet
  facet normal 0 0 -1
    outer loop
      vertex 69.5161 2.53461 0
      vertex 49.5161 2.53461 0
      vertex 51.4124 2.80725 0
    endloop
  endfacet
  facet normal 0 0 -1
    outer loop
      vertex 46.7377 4.94211 0
      vertex 33.4 5.9 0
      vertex 46.7377 6.85789 0
    endloop
  endfacet
  facet normal 0 0 -1
    outer loop
      vertex 32.8603 4.06182 0
      vertex 46.7377 4.94211 0
      vertex 47.7735 3.33045 0
    endloop
  endfacet
  facet normal 0 0 -1
    outer loop
      vertex 31.4124 2.80725 0
      vertex 47.7735 3.33045 0
      vertex 49.5161 2.53461 0
    endloop
  endfacet
  facet normal -0 0 -1
    outer loop
      vertex 46.7377 4.94211 0
      vertex 32.8603 4.06182 0
      vertex 33.4 5.9 0
    endloop
  endfacet
  facet normal -0 0 -1
    outer loop
      vertex 47.7735 3.33045 0
      vertex 31.4124 2.80725 0
      vertex 32.8603 4.06182 0
    endloop
  endfacet
  facet normal 0 0 -1
    outer loop
      vertex 0 0 0
      vertex 49.5161 2.53461 0
      vertex 120 0 0
    endloop
  endfacet
  facet normal 0 0 -1
    outer loop
      vertex 49.5161 2.53461 0
      vertex 29.5161 2.53461 0
      vertex 31.4124 2.80725 0
    endloop
  endfacet
  facet normal 0 0 -1
    outer loop
      vertex 26.7377 4.94211 0
      vertex 13.4 5.9 0
      vertex 26.7377 6.85789 0
    endloop
  endfacet
  facet normal 0 0 -1
    outer loop
      vertex 12.8603 4.06182 0
      vertex 26.7377 4.94211 0
      vertex 27.7735 3.33045 0
    endloop
  endfacet
  facet normal 0 0 -1
    outer loop
      vertex 11.4124 2.80725 0
      vertex 27.7735 3.33045 0
      vertex 29.5161 2.53461 0
    endloop
  endfacet
  facet normal -0 0 -1
    outer loop
      vertex 26.7377 4.94211 0
      vertex 12.8603 4.06182 0
      vertex 13.4 5.9 0
    endloop
  endfacet
  facet normal -0 0 -1
    outer loop
      vertex 27.7735 3.33045 0
      vertex 11.4124 2.80725 0
      vertex 12.8603 4.06182 0
    endloop
  endfacet
  facet normal -0 0 -1
    outer loop
      vertex 49.5161 2.53461 0
      vertex 0 0 0
      vertex 29.5161 2.53461 0
    endloop
  endfacet
  facet normal -0 0 -1
    outer loop
      vertex 29.5161 2.53461 0
      vertex 0 0 0
      vertex 11.4124 2.80725 0
    endloop
  endfacet
  facet normal -0 0 -1
    outer loop
      vertex 7.77347 3.33045 0
      vertex 0 0.0605232 0
      vertex 6.73772 4.94211 0
    endloop
  endfacet
  facet normal 0 0 -1
    outer loop
      vertex 0 0.0605232 0
      vertex 7.77347 3.33045 0
      vertex 0 0 0
    endloop
  endfacet
  facet normal -0 0 -1
    outer loop
      vertex 9.51613 2.53461 0
      vertex 0 0 0
      vertex 7.77347 3.33045 0
    endloop
  endfacet
  facet normal 0 0 -1
    outer loop
      vertex 11.4124 2.80725 0
      vertex 0 0 0
      vertex 9.51613 2.53461 0
    endloop
  endfacet
  facet normal 0 0 -1
    outer loop
      vertex 125.58 3.98427 0
      vertex 125.58 7.81573 0
      vertex 125.9 5.9 0
    endloop
  endfacet
  facet normal 0 0 -1
    outer loop
      vertex 124.656 2.27614 0
      vertex 125.58 7.81573 0
      vertex 125.58 3.98427 0
    endloop
  endfacet
  facet normal 0 0 -1
    outer loop
      vertex 124.656 2.27614 0
      vertex 124.656 9.52385 0
      vertex 125.58 7.81573 0
    endloop
  endfacet
  facet normal 0 0 -1
    outer loop
      vertex 120 0.0605233 0
      vertex 124.656 2.27614 0
      vertex 123.227 0.960717 0
    endloop
  endfacet
  facet normal -0 0 -1
    outer loop
      vertex 124.656 2.27614 0
      vertex 120 0.0605233 0
      vertex 124.656 9.52385 0
    endloop
  endfacet
  facet normal 0 0 -1
    outer loop
      vertex 120 0.0605233 0
      vertex 123.227 0.960717 0
      vertex 121.448 0.180538 0
    endloop
  endfacet
  facet normal 0 0 -1
    outer loop
      vertex 120 11.7395 0
      vertex 124.656 9.52385 0
      vertex 120 0.0605233 0
    endloop
  endfacet
  facet normal 0 0 -1
    outer loop
      vertex 124.656 9.52385 0
      vertex 120 11.7395 0
      vertex 123.227 10.8393 0
    endloop
  endfacet
  facet normal 0 0 -1
    outer loop
      vertex 123.227 10.8393 0
      vertex 120 11.7395 0
      vertex 121.448 11.6195 0
    endloop
  endfacet
  facet normal -0 0 -1
    outer loop
      vertex 120 11.7395 0
      vertex 112.86 7.73818 0
      vertex 120 11.8 0
    endloop
  endfacet
  facet normal 0 0 -1
    outer loop
      vertex 111.412 8.99275 0
      vertex 120 11.8 0
      vertex 112.86 7.73818 0
    endloop
  endfacet
  facet normal 0 0 -1
    outer loop
      vertex 109.516 9.26539 0
      vertex 120 11.8 0
      vertex 111.412 8.99275 0
    endloop
  endfacet
  facet normal 0 0 -1
    outer loop
      vertex 92.8603 7.73818 0
      vertex 106.738 6.85789 0
      vertex 93.4 5.9 0
    endloop
  endfacet
  facet normal 0 0 -1
    outer loop
      vertex 106.738 6.85789 0
      vertex 92.8603 7.73818 0
      vertex 107.773 8.46955 0
    endloop
  endfacet
  facet normal 0 0 -1
    outer loop
      vertex 91.4124 8.99275 0
      vertex 107.773 8.46955 0
      vertex 92.8603 7.73818 0
    endloop
  endfacet
  facet normal 0 0 -1
    outer loop
      vertex 107.773 8.46955 0
      vertex 91.4124 8.99275 0
      vertex 109.516 9.26539 0
    endloop
  endfacet
  facet normal -0 0 -1
    outer loop
      vertex 109.516 9.26539 0
      vertex 91.4124 8.99275 0
      vertex 120 11.8 0
    endloop
  endfacet
  facet normal 0 0 -1
    outer loop
      vertex 89.5161 9.26539 0
      vertex 120 11.8 0
      vertex 91.4124 8.99275 0
    endloop
  endfacet
  facet normal 0 0 -1
    outer loop
      vertex 72.8603 7.73818 0
      vertex 86.7377 6.85789 0
      vertex 73.4 5.9 0
    endloop
  endfacet
  facet normal 0 0 -1
    outer loop
      vertex 86.7377 6.85789 0
      vertex 72.8603 7.73818 0
      vertex 87.7735 8.46955 0
    endloop
  endfacet
  facet normal 0 0 -1
    outer loop
      vertex 71.4124 8.99275 0
      vertex 87.7735 8.46955 0
      vertex 72.8603 7.73818 0
    endloop
  endfacet
  facet normal 0 0 -1
    outer loop
      vertex 87.7735 8.46955 0
      vertex 71.4124 8.99275 0
      vertex 89.5161 9.26539 0
    endloop
  endfacet
  facet normal 0 0 -1
    outer loop
      vertex 69.5161 9.26539 0
      vertex 89.5161 9.26539 0
      vertex 71.4124 8.99275 0
    endloop
  endfacet
  facet normal 0 0 -1
    outer loop
      vertex 89.5161 9.26539 0
      vertex 69.5161 9.26539 0
      vertex 120 11.8 0
    endloop
  endfacet
  facet normal 0 0 -1
    outer loop
      vertex 52.8603 7.73818 0
      vertex 66.7377 6.85789 0
      vertex 53.4 5.9 0
    endloop
  endfacet
  facet normal 0 0 -1
    outer loop
      vertex 66.7377 6.85789 0
      vertex 52.8603 7.73818 0
      vertex 67.7735 8.46955 0
    endloop
  endfacet
  facet normal 0 0 -1
    outer loop
      vertex 51.4124 8.99275 0
      vertex 67.7735 8.46955 0
      vertex 52.8603 7.73818 0
    endloop
  endfacet
  facet normal 0 0 -1
    outer loop
      vertex 67.7735 8.46955 0
      vertex 51.4124 8.99275 0
      vertex 69.5161 9.26539 0
    endloop
  endfacet
  facet normal 0 0 -1
    outer loop
      vertex 49.5161 9.26539 0
      vertex 69.5161 9.26539 0
      vertex 51.4124 8.99275 0
    endloop
  endfacet
  facet normal 0 0 -1
    outer loop
      vertex 69.5161 9.26539 0
      vertex 49.5161 9.26539 0
      vertex 120 11.8 0
    endloop
  endfacet
  facet normal 0 0 -1
    outer loop
      vertex 32.8603 7.73818 0
      vertex 46.7377 6.85789 0
      vertex 33.4 5.9 0
    endloop
  endfacet
  facet normal 0 0 -1
    outer loop
      vertex 46.7377 6.85789 0
      vertex 32.8603 7.73818 0
      vertex 47.7735 8.46955 0
    endloop
  endfacet
  facet normal 0 0 -1
    outer loop
      vertex 31.4124 8.99275 0
      vertex 47.7735 8.46955 0
      vertex 32.8603 7.73818 0
    endloop
  endfacet
  facet normal 0 0 -1
    outer loop
      vertex 47.7735 8.46955 0
      vertex 31.4124 8.99275 0
      vertex 49.5161 9.26539 0
    endloop
  endfacet
  facet normal 0 0 -1
    outer loop
      vertex 29.5161 9.26539 0
      vertex 49.5161 9.26539 0
      vertex 31.4124 8.99275 0
    endloop
  endfacet
  facet normal 0 0 -1
    outer loop
      vertex 0 11.8 0
      vertex 49.5161 9.26539 0
      vertex 29.5161 9.26539 0
    endloop
  endfacet
  facet normal 0 0 -1
    outer loop
      vertex 12.8603 7.73818 0
      vertex 26.7377 6.85789 0
      vertex 13.4 5.9 0
    endloop
  endfacet
  facet normal 0 0 -1
    outer loop
      vertex 26.7377 6.85789 0
      vertex 12.8603 7.73818 0
      vertex 27.7735 8.46955 0
    endloop
  endfacet
  facet normal 0 0 -1
    outer loop
      vertex 11.4124 8.99275 0
      vertex 27.7735 8.46955 0
      vertex 12.8603 7.73818 0
    endloop
  endfacet
  facet normal 0 0 -1
    outer loop
      vertex 27.7735 8.46955 0
      vertex 11.4124 8.99275 0
      vertex 29.5161 9.26539 0
    endloop
  endfacet
  facet normal 0 0 -1
    outer loop
      vertex 0 11.8 0
      vertex 29.5161 9.26539 0
      vertex 11.4124 8.99275 0
    endloop
  endfacet
  facet normal 0 0 -1
    outer loop
      vertex 0 11.8 0
      vertex 11.4124 8.99275 0
      vertex 9.51613 9.26539 0
    endloop
  endfacet
  facet normal -0 0 -1
    outer loop
      vertex 6.73772 4.94211 0
      vertex 0 0.0605232 0
      vertex 6.73772 6.85789 0
    endloop
  endfacet
  facet normal 0 0 -1
    outer loop
      vertex 0 11.7395 0
      vertex 6.73772 6.85789 0
      vertex 0 0.0605232 0
    endloop
  endfacet
  facet normal 0 0 -1
    outer loop
      vertex 6.73772 6.85789 0
      vertex 0 11.7395 0
      vertex 7.77347 8.46955 0
    endloop
  endfacet
  facet normal 0 0 -1
    outer loop
      vertex 0 11.8 0
      vertex 7.77347 8.46955 0
      vertex 0 11.7395 0
    endloop
  endfacet
  facet normal 0 0 -1
    outer loop
      vertex 7.77347 8.46955 0
      vertex 0 11.8 0
      vertex 9.51613 9.26539 0
    endloop
  endfacet
  facet normal 0 0 -1
    outer loop
      vertex 49.5161 9.26539 0
      vertex 0 11.8 0
      vertex 120 11.8 0
    endloop
  endfacet
  facet normal 0.986334 0.164755 0
    outer loop
      vertex 125.9 5.9 45
      vertex 125.58 7.81573 0
      vertex 125.58 7.81573 45
    endloop
  endfacet
  facet normal 0.986334 0.164755 0
    outer loop
      vertex 125.58 7.81573 0
      vertex 125.9 5.9 45
      vertex 125.9 5.9 0
    endloop
  endfacet
  facet normal 0.0825898 0.996584 -0
    outer loop
      vertex 121.448 11.6195 0
      vertex 120 11.7395 45
      vertex 121.448 11.6195 45
    endloop
  endfacet
  facet normal 0.0825898 0.996584 0
    outer loop
      vertex 120 11.7395 45
      vertex 121.448 11.6195 0
      vertex 120 11.7395 0
    endloop
  endfacet
  facet normal 0.879557 0.475793 0
    outer loop
      vertex 125.58 7.81573 45
      vertex 124.656 9.52385 0
      vertex 124.656 9.52385 45
    endloop
  endfacet
  facet normal 0.879557 0.475793 0
    outer loop
      vertex 124.656 9.52385 0
      vertex 125.58 7.81573 45
      vertex 125.58 7.81573 0
    endloop
  endfacet
  facet normal 0.401625 -0.915804 0
    outer loop
      vertex 121.448 0.180538 0
      vertex 123.227 0.960717 45
      vertex 121.448 0.180538 45
    endloop
  endfacet
  facet normal 0.401625 -0.915804 0
    outer loop
      vertex 123.227 0.960717 45
      vertex 121.448 0.180538 0
      vertex 123.227 0.960717 0
    endloop
  endfacet
  facet normal 0.677271 0.735733 -0
    outer loop
      vertex 124.656 9.52385 0
      vertex 123.227 10.8393 45
      vertex 124.656 9.52385 45
    endloop
  endfacet
  facet normal 0.677271 0.735733 0
    outer loop
      vertex 123.227 10.8393 45
      vertex 124.656 9.52385 0
      vertex 123.227 10.8393 0
    endloop
  endfacet
  facet normal 0.986334 -0.164755 0
    outer loop
      vertex 125.58 3.98427 45
      vertex 125.9 5.9 0
      vertex 125.9 5.9 45
    endloop
  endfacet
  facet normal 0.986334 -0.164755 0
    outer loop
      vertex 125.9 5.9 0
      vertex 125.58 3.98427 45
      vertex 125.58 3.98427 0
    endloop
  endfacet
  facet normal 0.879559 -0.475791 0
    outer loop
      vertex 124.656 2.27614 45
      vertex 125.58 3.98427 0
      vertex 125.58 3.98427 45
    endloop
  endfacet
  facet normal 0.879559 -0.475791 0
    outer loop
      vertex 125.58 3.98427 0
      vertex 124.656 2.27614 45
      vertex 124.656 2.27614 0
    endloop
  endfacet
  facet normal 0.0825999 -0.996583 0
    outer loop
      vertex 120 0.0605233 0
      vertex 121.448 0.180538 45
      vertex 120 0.0605233 45
    endloop
  endfacet
  facet normal 0.0825999 -0.996583 0
    outer loop
      vertex 121.448 0.180538 45
      vertex 120 0.0605233 0
      vertex 121.448 0.180538 0
    endloop
  endfacet
  facet normal 0.677264 -0.73574 0
    outer loop
      vertex 123.227 0.960717 0
      vertex 124.656 2.27614 45
      vertex 123.227 0.960717 45
    endloop
  endfacet
  facet normal 0.677264 -0.73574 0
    outer loop
      vertex 124.656 2.27614 45
      vertex 123.227 0.960717 0
      vertex 124.656 2.27614 0
    endloop
  endfacet
  facet normal 0.401634 0.9158 -0
    outer loop
      vertex 123.227 10.8393 0
      vertex 121.448 11.6195 45
      vertex 123.227 10.8393 45
    endloop
  endfacet
  facet normal 0.401634 0.9158 0
    outer loop
      vertex 121.448 11.6195 45
      vertex 123.227 10.8393 0
      vertex 121.448 11.6195 0
    endloop
  endfacet
  facet normal 1 -0 0
    outer loop
      vertex 120 11.7395 45
      vertex 120 11.8 0
      vertex 120 11.8 45
    endloop
  endfacet
  facet normal 1 0 0
    outer loop
      vertex 120 11.8 0
      vertex 120 11.7395 45
      vertex 120 11.7395 0
    endloop
  endfacet
  facet normal 1 -0 0
    outer loop
      vertex 120 0 45
      vertex 120 0.0605233 0
      vertex 120 0.0605233 45
    endloop
  endfacet
  facet normal 1 0 0
    outer loop
      vertex 120 0.0605233 0
      vertex 120 0 45
      vertex 120 0 0
    endloop
  endfacet
  facet normal -1 0 0
    outer loop
      vertex 0 11.7395 0
      vertex 0 11.8 45
      vertex 0 11.8 0
    endloop
  endfacet
  facet normal -1 -0 0
    outer loop
      vertex 0 11.8 45
      vertex 0 11.7395 0
      vertex 0 11.7395 45
    endloop
  endfacet
  facet normal -1 0 0
    outer loop
      vertex 0 0 0
      vertex 0 0.0605232 45
      vertex 0 0.0605232 0
    endloop
  endfacet
  facet normal -1 -0 0
    outer loop
      vertex 0 0.0605232 45
      vertex 0 0 0
      vertex 0 0 45
    endloop
  endfacet
  facet normal 0 1 -0
    outer loop
      vertex 120 11.8 0
      vertex 0 11.8 45
      vertex 120 11.8 45
    endloop
  endfacet
  facet normal 0 1 0
    outer loop
      vertex 0 11.8 45
      vertex 120 11.8 0
      vertex 0 11.8 0
    endloop
  endfacet
  facet normal 0 -1 0
    outer loop
      vertex 0 0 0
      vertex 120 0 45
      vertex 0 0 45
    endloop
  endfacet
  facet normal 0 -1 -0
    outer loop
      vertex 120 0 45
      vertex 0 0 0
      vertex 120 0 0
    endloop
  endfacet
  facet normal 0.841254 0.54064 0
    outer loop
      vertex 7.77347 3.33045 45
      vertex 6.73772 4.94211 0
      vertex 6.73772 4.94211 45
    endloop
  endfacet
  facet normal 0.841254 0.54064 0
    outer loop
      vertex 6.73772 4.94211 0
      vertex 7.77347 3.33045 45
      vertex 7.77347 3.33045 0
    endloop
  endfacet
  facet normal -0.654848 -0.755761 0
    outer loop
      vertex 11.4124 8.99275 0
      vertex 12.8603 7.73818 45
      vertex 11.4124 8.99275 45
    endloop
  endfacet
  facet normal -0.654848 -0.755761 -0
    outer loop
      vertex 12.8603 7.73818 45
      vertex 11.4124 8.99275 0
      vertex 12.8603 7.73818 0
    endloop
  endfacet
  facet normal -0.959498 -0.281714 0
    outer loop
      vertex 13.4 5.9 0
      vertex 12.8603 7.73818 45
      vertex 12.8603 7.73818 0
    endloop
  endfacet
  facet normal -0.959498 -0.281714 0
    outer loop
      vertex 12.8603 7.73818 45
      vertex 13.4 5.9 0
      vertex 13.4 5.9 45
    endloop
  endfacet
  facet normal -0.959498 0.281714 0
    outer loop
      vertex 12.8603 4.06182 0
      vertex 13.4 5.9 45
      vertex 13.4 5.9 0
    endloop
  endfacet
  facet normal -0.959498 0.281714 0
    outer loop
      vertex 13.4 5.9 45
      vertex 12.8603 4.06182 0
      vertex 12.8603 4.06182 45
    endloop
  endfacet
  facet normal 0.841254 -0.54064 0
    outer loop
      vertex 6.73772 6.85789 45
      vertex 7.77347 8.46955 0
      vertex 7.77347 8.46955 45
    endloop
  endfacet
  facet normal 0.841254 -0.54064 0
    outer loop
      vertex 7.77347 8.46955 0
      vertex 6.73772 6.85789 45
      vertex 6.73772 6.85789 0
    endloop
  endfacet
  facet normal -0.142314 0.989822 0
    outer loop
      vertex 11.4124 2.80725 0
      vertex 9.51613 2.53461 45
      vertex 11.4124 2.80725 45
    endloop
  endfacet
  facet normal -0.142314 0.989822 0
    outer loop
      vertex 9.51613 2.53461 45
      vertex 11.4124 2.80725 0
      vertex 9.51613 2.53461 0
    endloop
  endfacet
  facet normal 1 -0 0
    outer loop
      vertex 6.73772 4.94211 45
      vertex 6.73772 6.85789 0
      vertex 6.73772 6.85789 45
    endloop
  endfacet
  facet normal 1 0 0
    outer loop
      vertex 6.73772 6.85789 0
      vertex 6.73772 4.94211 45
      vertex 6.73772 4.94211 0
    endloop
  endfacet
  facet normal -0.654848 0.755761 0
    outer loop
      vertex 12.8603 4.06182 0
      vertex 11.4124 2.80725 45
      vertex 12.8603 4.06182 45
    endloop
  endfacet
  facet normal -0.654848 0.755761 0
    outer loop
      vertex 11.4124 2.80725 45
      vertex 12.8603 4.06182 0
      vertex 11.4124 2.80725 0
    endloop
  endfacet
  facet normal 0.415412 0.909633 -0
    outer loop
      vertex 9.51613 2.53461 0
      vertex 7.77347 3.33045 45
      vertex 9.51613 2.53461 45
    endloop
  endfacet
  facet normal 0.415412 0.909633 0
    outer loop
      vertex 7.77347 3.33045 45
      vertex 9.51613 2.53461 0
      vertex 7.77347 3.33045 0
    endloop
  endfacet
  facet normal 0.415412 -0.909633 0
    outer loop
      vertex 7.77347 8.46955 0
      vertex 9.51613 9.26539 45
      vertex 7.77347 8.46955 45
    endloop
  endfacet
  facet normal 0.415412 -0.909633 0
    outer loop
      vertex 9.51613 9.26539 45
      vertex 7.77347 8.46955 0
      vertex 9.51613 9.26539 0
    endloop
  endfacet
  facet normal -0.142314 -0.989822 0
    outer loop
      vertex 9.51613 9.26539 0
      vertex 11.4124 8.99275 45
      vertex 9.51613 9.26539 45
    endloop
  endfacet
  facet normal -0.142314 -0.989822 -0
    outer loop
      vertex 11.4124 8.99275 45
      vertex 9.51613 9.26539 0
      vertex 11.4124 8.99275 0
    endloop
  endfacet
  facet normal -0.654848 -0.755761 0
    outer loop
      vertex 31.4124 8.99275 0
      vertex 32.8603 7.73818 45
      vertex 31.4124 8.99275 45
    endloop
  endfacet
  facet normal -0.654848 -0.755761 -0
    outer loop
      vertex 32.8603 7.73818 45
      vertex 31.4124 8.99275 0
      vertex 32.8603 7.73818 0
    endloop
  endfacet
  facet normal -0.959498 -0.281714 0
    outer loop
      vertex 33.4 5.9 0
      vertex 32.8603 7.73818 45
      vertex 32.8603 7.73818 0
    endloop
  endfacet
  facet normal -0.959498 -0.281714 0
    outer loop
      vertex 32.8603 7.73818 45
      vertex 33.4 5.9 0
      vertex 33.4 5.9 45
    endloop
  endfacet
  facet normal 0.841242 0.540659 0
    outer loop
      vertex 27.7735 3.33045 45
      vertex 26.7377 4.94211 0
      vertex 26.7377 4.94211 45
    endloop
  endfacet
  facet normal 0.841242 0.540659 0
    outer loop
      vertex 26.7377 4.94211 0
      vertex 27.7735 3.33045 45
      vertex 27.7735 3.33045 0
    endloop
  endfacet
  facet normal -0.959498 0.281714 0
    outer loop
      vertex 32.8603 4.06182 0
      vertex 33.4 5.9 45
      vertex 33.4 5.9 0
    endloop
  endfacet
  facet normal -0.959498 0.281714 0
    outer loop
      vertex 33.4 5.9 45
      vertex 32.8603 4.06182 0
      vertex 32.8603 4.06182 45
    endloop
  endfacet
  facet normal 1 -0 0
    outer loop
      vertex 26.7377 4.94211 45
      vertex 26.7377 6.85789 0
      vertex 26.7377 6.85789 45
    endloop
  endfacet
  facet normal 1 0 0
    outer loop
      vertex 26.7377 6.85789 0
      vertex 26.7377 4.94211 45
      vertex 26.7377 4.94211 0
    endloop
  endfacet
  facet normal 0.841242 -0.540659 0
    outer loop
      vertex 26.7377 6.85789 45
      vertex 27.7735 8.46955 0
      vertex 27.7735 8.46955 45
    endloop
  endfacet
  facet normal 0.841242 -0.540659 0
    outer loop
      vertex 27.7735 8.46955 0
      vertex 26.7377 6.85789 45
      vertex 26.7377 6.85789 0
    endloop
  endfacet
  facet normal -0.654848 0.755761 0
    outer loop
      vertex 32.8603 4.06182 0
      vertex 31.4124 2.80725 45
      vertex 32.8603 4.06182 45
    endloop
  endfacet
  facet normal -0.654848 0.755761 0
    outer loop
      vertex 31.4124 2.80725 45
      vertex 32.8603 4.06182 0
      vertex 31.4124 2.80725 0
    endloop
  endfacet
  facet normal -0.142311 -0.989822 0
    outer loop
      vertex 29.5161 9.26539 0
      vertex 31.4124 8.99275 45
      vertex 29.5161 9.26539 45
    endloop
  endfacet
  facet normal -0.142311 -0.989822 -0
    outer loop
      vertex 31.4124 8.99275 45
      vertex 29.5161 9.26539 0
      vertex 31.4124 8.99275 0
    endloop
  endfacet
  facet normal 0.415424 0.909628 -0
    outer loop
      vertex 29.5161 2.53461 0
      vertex 27.7735 3.33045 45
      vertex 29.5161 2.53461 45
    endloop
  endfacet
  facet normal 0.415424 0.909628 0
    outer loop
      vertex 27.7735 3.33045 45
      vertex 29.5161 2.53461 0
      vertex 27.7735 3.33045 0
    endloop
  endfacet
  facet normal 0.415424 -0.909628 0
    outer loop
      vertex 27.7735 8.46955 0
      vertex 29.5161 9.26539 45
      vertex 27.7735 8.46955 45
    endloop
  endfacet
  facet normal 0.415424 -0.909628 0
    outer loop
      vertex 29.5161 9.26539 45
      vertex 27.7735 8.46955 0
      vertex 29.5161 9.26539 0
    endloop
  endfacet
  facet normal -0.142311 0.989822 0
    outer loop
      vertex 31.4124 2.80725 0
      vertex 29.5161 2.53461 45
      vertex 31.4124 2.80725 45
    endloop
  endfacet
  facet normal -0.142311 0.989822 0
    outer loop
      vertex 29.5161 2.53461 45
      vertex 31.4124 2.80725 0
      vertex 29.5161 2.53461 0
    endloop
  endfacet
  facet normal -0.654848 -0.755761 0
    outer loop
      vertex 51.4124 8.99275 0
      vertex 52.8603 7.73818 45
      vertex 51.4124 8.99275 45
    endloop
  endfacet
  facet normal -0.654848 -0.755761 -0
    outer loop
      vertex 52.8603 7.73818 45
      vertex 51.4124 8.99275 0
      vertex 52.8603 7.73818 0
    endloop
  endfacet
  facet normal -0.959498 -0.281714 0
    outer loop
      vertex 53.4 5.9 0
      vertex 52.8603 7.73818 45
      vertex 52.8603 7.73818 0
    endloop
  endfacet
  facet normal -0.959498 -0.281714 0
    outer loop
      vertex 52.8603 7.73818 45
      vertex 53.4 5.9 0
      vertex 53.4 5.9 45
    endloop
  endfacet
  facet normal 0.841242 0.540659 0
    outer loop
      vertex 47.7735 3.33045 45
      vertex 46.7377 4.94211 0
      vertex 46.7377 4.94211 45
    endloop
  endfacet
  facet normal 0.841242 0.540659 0
    outer loop
      vertex 46.7377 4.94211 0
      vertex 47.7735 3.33045 45
      vertex 47.7735 3.33045 0
    endloop
  endfacet
  facet normal -0.959498 0.281714 0
    outer loop
      vertex 52.8603 4.06182 0
      vertex 53.4 5.9 45
      vertex 53.4 5.9 0
    endloop
  endfacet
  facet normal -0.959498 0.281714 0
    outer loop
      vertex 53.4 5.9 45
      vertex 52.8603 4.06182 0
      vertex 52.8603 4.06182 45
    endloop
  endfacet
  facet normal 1 -0 0
    outer loop
      vertex 46.7377 4.94211 45
      vertex 46.7377 6.85789 0
      vertex 46.7377 6.85789 45
    endloop
  endfacet
  facet normal 1 0 0
    outer loop
      vertex 46.7377 6.85789 0
      vertex 46.7377 4.94211 45
      vertex 46.7377 4.94211 0
    endloop
  endfacet
  facet normal 0.841242 -0.540659 0
    outer loop
      vertex 46.7377 6.85789 45
      vertex 47.7735 8.46955 0
      vertex 47.7735 8.46955 45
    endloop
  endfacet
  facet normal 0.841242 -0.540659 0
    outer loop
      vertex 47.7735 8.46955 0
      vertex 46.7377 6.85789 45
      vertex 46.7377 6.85789 0
    endloop
  endfacet
  facet normal -0.654848 0.755761 0
    outer loop
      vertex 52.8603 4.06182 0
      vertex 51.4124 2.80725 45
      vertex 52.8603 4.06182 45
    endloop
  endfacet
  facet normal -0.654848 0.755761 0
    outer loop
      vertex 51.4124 2.80725 45
      vertex 52.8603 4.06182 0
      vertex 51.4124 2.80725 0
    endloop
  endfacet
  facet normal -0.142311 0.989822 0
    outer loop
      vertex 51.4124 2.80725 0
      vertex 49.5161 2.53461 45
      vertex 51.4124 2.80725 45
    endloop
  endfacet
  facet normal -0.142311 0.989822 0
    outer loop
      vertex 49.5161 2.53461 45
      vertex 51.4124 2.80725 0
      vertex 49.5161 2.53461 0
    endloop
  endfacet
  facet normal -0.142311 -0.989822 0
    outer loop
      vertex 49.5161 9.26539 0
      vertex 51.4124 8.99275 45
      vertex 49.5161 9.26539 45
    endloop
  endfacet
  facet normal -0.142311 -0.989822 -0
    outer loop
      vertex 51.4124 8.99275 45
      vertex 49.5161 9.26539 0
      vertex 51.4124 8.99275 0
    endloop
  endfacet
  facet normal 0.415424 0.909628 -0
    outer loop
      vertex 49.5161 2.53461 0
      vertex 47.7735 3.33045 45
      vertex 49.5161 2.53461 45
    endloop
  endfacet
  facet normal 0.415424 0.909628 0
    outer loop
      vertex 47.7735 3.33045 45
      vertex 49.5161 2.53461 0
      vertex 47.7735 3.33045 0
    endloop
  endfacet
  facet normal 0.415424 -0.909628 0
    outer loop
      vertex 47.7735 8.46955 0
      vertex 49.5161 9.26539 45
      vertex 47.7735 8.46955 45
    endloop
  endfacet
  facet normal 0.415424 -0.909628 0
    outer loop
      vertex 49.5161 9.26539 45
      vertex 47.7735 8.46955 0
      vertex 49.5161 9.26539 0
    endloop
  endfacet
  facet normal -0.654848 -0.755761 0
    outer loop
      vertex 71.4124 8.99275 0
      vertex 72.8603 7.73818 45
      vertex 71.4124 8.99275 45
    endloop
  endfacet
  facet normal -0.654848 -0.755761 -0
    outer loop
      vertex 72.8603 7.73818 45
      vertex 71.4124 8.99275 0
      vertex 72.8603 7.73818 0
    endloop
  endfacet
  facet normal -0.959498 -0.281714 0
    outer loop
      vertex 73.4 5.9 0
      vertex 72.8603 7.73818 45
      vertex 72.8603 7.73818 0
    endloop
  endfacet
  facet normal -0.959498 -0.281714 0
    outer loop
      vertex 72.8603 7.73818 45
      vertex 73.4 5.9 0
      vertex 73.4 5.9 45
    endloop
  endfacet
  facet normal 0.841242 0.540659 0
    outer loop
      vertex 67.7735 3.33045 45
      vertex 66.7377 4.94211 0
      vertex 66.7377 4.94211 45
    endloop
  endfacet
  facet normal 0.841242 0.540659 0
    outer loop
      vertex 66.7377 4.94211 0
      vertex 67.7735 3.33045 45
      vertex 67.7735 3.33045 0
    endloop
  endfacet
  facet normal -0.959498 0.281714 0
    outer loop
      vertex 72.8603 4.06182 0
      vertex 73.4 5.9 45
      vertex 73.4 5.9 0
    endloop
  endfacet
  facet normal -0.959498 0.281714 0
    outer loop
      vertex 73.4 5.9 45
      vertex 72.8603 4.06182 0
      vertex 72.8603 4.06182 45
    endloop
  endfacet
  facet normal 1 -0 0
    outer loop
      vertex 66.7377 4.94211 45
      vertex 66.7377 6.85789 0
      vertex 66.7377 6.85789 45
    endloop
  endfacet
  facet normal 1 0 0
    outer loop
      vertex 66.7377 6.85789 0
      vertex 66.7377 4.94211 45
      vertex 66.7377 4.94211 0
    endloop
  endfacet
  facet normal 0.841242 -0.540659 0
    outer loop
      vertex 66.7377 6.85789 45
      vertex 67.7735 8.46955 0
      vertex 67.7735 8.46955 45
    endloop
  endfacet
  facet normal 0.841242 -0.540659 0
    outer loop
      vertex 67.7735 8.46955 0
      vertex 66.7377 6.85789 45
      vertex 66.7377 6.85789 0
    endloop
  endfacet
  facet normal -0.654848 0.755761 0
    outer loop
      vertex 72.8603 4.06182 0
      vertex 71.4124 2.80725 45
      vertex 72.8603 4.06182 45
    endloop
  endfacet
  facet normal -0.654848 0.755761 0
    outer loop
      vertex 71.4124 2.80725 45
      vertex 72.8603 4.06182 0
      vertex 71.4124 2.80725 0
    endloop
  endfacet
  facet normal -0.142311 0.989822 0
    outer loop
      vertex 71.4124 2.80725 0
      vertex 69.5161 2.53461 45
      vertex 71.4124 2.80725 45
    endloop
  endfacet
  facet normal -0.142311 0.989822 0
    outer loop
      vertex 69.5161 2.53461 45
      vertex 71.4124 2.80725 0
      vertex 69.5161 2.53461 0
    endloop
  endfacet
  facet normal -0.142311 -0.989822 0
    outer loop
      vertex 69.5161 9.26539 0
      vertex 71.4124 8.99275 45
      vertex 69.5161 9.26539 45
    endloop
  endfacet
  facet normal -0.142311 -0.989822 -0
    outer loop
      vertex 71.4124 8.99275 45
      vertex 69.5161 9.26539 0
      vertex 71.4124 8.99275 0
    endloop
  endfacet
  facet normal 0.415424 0.909628 -0
    outer loop
      vertex 69.5161 2.53461 0
      vertex 67.7735 3.33045 45
      vertex 69.5161 2.53461 45
    endloop
  endfacet
  facet normal 0.415424 0.909628 0
    outer loop
      vertex 67.7735 3.33045 45
      vertex 69.5161 2.53461 0
      vertex 67.7735 3.33045 0
    endloop
  endfacet
  facet normal 0.415424 -0.909628 0
    outer loop
      vertex 67.7735 8.46955 0
      vertex 69.5161 9.26539 45
      vertex 67.7735 8.46955 45
    endloop
  endfacet
  facet normal 0.415424 -0.909628 0
    outer loop
      vertex 69.5161 9.26539 45
      vertex 67.7735 8.46955 0
      vertex 69.5161 9.26539 0
    endloop
  endfacet
  facet normal 0.841242 0.540659 0
    outer loop
      vertex 87.7735 3.33045 45
      vertex 86.7377 4.94211 0
      vertex 86.7377 4.94211 45
    endloop
  endfacet
  facet normal 0.841242 0.540659 0
    outer loop
      vertex 86.7377 4.94211 0
      vertex 87.7735 3.33045 45
      vertex 87.7735 3.33045 0
    endloop
  endfacet
  facet normal -0.654848 -0.755761 0
    outer loop
      vertex 91.4124 8.99275 0
      vertex 92.8603 7.73818 45
      vertex 91.4124 8.99275 45
    endloop
  endfacet
  facet normal -0.654848 -0.755761 -0
    outer loop
      vertex 92.8603 7.73818 45
      vertex 91.4124 8.99275 0
      vertex 92.8603 7.73818 0
    endloop
  endfacet
  facet normal -0.959498 -0.281714 0
    outer loop
      vertex 93.4 5.9 0
      vertex 92.8603 7.73818 45
      vertex 92.8603 7.73818 0
    endloop
  endfacet
  facet normal -0.959498 -0.281714 0
    outer loop
      vertex 92.8603 7.73818 45
      vertex 93.4 5.9 0
      vertex 93.4 5.9 45
    endloop
  endfacet
  facet normal -0.959498 0.281714 0
    outer loop
      vertex 92.8603 4.06182 0
      vertex 93.4 5.9 45
      vertex 93.4 5.9 0
    endloop
  endfacet
  facet normal -0.959498 0.281714 0
    outer loop
      vertex 93.4 5.9 45
      vertex 92.8603 4.06182 0
      vertex 92.8603 4.06182 45
    endloop
  endfacet
  facet normal -0.142311 0.989822 0
    outer loop
      vertex 91.4124 2.80725 0
      vertex 89.5161 2.53461 45
      vertex 91.4124 2.80725 45
    endloop
  endfacet
  facet normal -0.142311 0.989822 0
    outer loop
      vertex 89.5161 2.53461 45
      vertex 91.4124 2.80725 0
      vertex 89.5161 2.53461 0
    endloop
  endfacet
  facet normal 1 -0 0
    outer loop
      vertex 86.7377 4.94211 45
      vertex 86.7377 6.85789 0
      vertex 86.7377 6.85789 45
    endloop
  endfacet
  facet normal 1 0 0
    outer loop
      vertex 86.7377 6.85789 0
      vertex 86.7377 4.94211 45
      vertex 86.7377 4.94211 0
    endloop
  endfacet
  facet normal 0.841242 -0.540659 0
    outer loop
      vertex 86.7377 6.85789 45
      vertex 87.7735 8.46955 0
      vertex 87.7735 8.46955 45
    endloop
  endfacet
  facet normal 0.841242 -0.540659 0
    outer loop
      vertex 87.7735 8.46955 0
      vertex 86.7377 6.85789 45
      vertex 86.7377 6.85789 0
    endloop
  endfacet
  facet normal -0.654848 0.755761 0
    outer loop
      vertex 92.8603 4.06182 0
      vertex 91.4124 2.80725 45
      vertex 92.8603 4.06182 45
    endloop
  endfacet
  facet normal -0.654848 0.755761 0
    outer loop
      vertex 91.4124 2.80725 45
      vertex 92.8603 4.06182 0
      vertex 91.4124 2.80725 0
    endloop
  endfacet
  facet normal 0.415424 0.909628 -0
    outer loop
      vertex 89.5161 2.53461 0
      vertex 87.7735 3.33045 45
      vertex 89.5161 2.53461 45
    endloop
  endfacet
  facet normal 0.415424 0.909628 0
    outer loop
      vertex 87.7735 3.33045 45
      vertex 89.5161 2.53461 0
      vertex 87.7735 3.33045 0
    endloop
  endfacet
  facet normal 0.415424 -0.909628 0
    outer loop
      vertex 87.7735 8.46955 0
      vertex 89.5161 9.26539 45
      vertex 87.7735 8.46955 45
    endloop
  endfacet
  facet normal 0.415424 -0.909628 0
    outer loop
      vertex 89.5161 9.26539 45
      vertex 87.7735 8.46955 0
      vertex 89.5161 9.26539 0
    endloop
  endfacet
  facet normal -0.142311 -0.989822 0
    outer loop
      vertex 89.5161 9.26539 0
      vertex 91.4124 8.99275 45
      vertex 89.5161 9.26539 45
    endloop
  endfacet
  facet normal -0.142311 -0.989822 -0
    outer loop
      vertex 91.4124 8.99275 45
      vertex 89.5161 9.26539 0
      vertex 91.4124 8.99275 0
    endloop
  endfacet
  facet normal 0.841432 0.540363 0
    outer loop
      vertex 107.773 3.33045 45
      vertex 106.738 4.94211 0
      vertex 106.738 4.94211 45
    endloop
  endfacet
  facet normal 0.841432 0.540363 0
    outer loop
      vertex 106.738 4.94211 0
      vertex 107.773 3.33045 45
      vertex 107.773 3.33045 0
    endloop
  endfacet
  facet normal -0.654822 -0.755783 0
    outer loop
      vertex 111.412 8.99275 0
      vertex 112.86 7.73818 45
      vertex 111.412 8.99275 45
    endloop
  endfacet
  facet normal -0.654822 -0.755783 -0
    outer loop
      vertex 112.86 7.73818 45
      vertex 111.412 8.99275 0
      vertex 112.86 7.73818 0
    endloop
  endfacet
  facet normal -0.959456 -0.281858 0
    outer loop
      vertex 113.4 5.9 0
      vertex 112.86 7.73818 45
      vertex 112.86 7.73818 0
    endloop
  endfacet
  facet normal -0.959456 -0.281858 0
    outer loop
      vertex 112.86 7.73818 45
      vertex 113.4 5.9 0
      vertex 113.4 5.9 45
    endloop
  endfacet
  facet normal -0.959456 0.281858 0
    outer loop
      vertex 112.86 4.06182 0
      vertex 113.4 5.9 45
      vertex 113.4 5.9 0
    endloop
  endfacet
  facet normal -0.959456 0.281858 0
    outer loop
      vertex 113.4 5.9 45
      vertex 112.86 4.06182 0
      vertex 112.86 4.06182 45
    endloop
  endfacet
  facet normal 0.841432 -0.540363 0
    outer loop
      vertex 106.738 6.85789 45
      vertex 107.773 8.46955 0
      vertex 107.773 8.46955 45
    endloop
  endfacet
  facet normal 0.841432 -0.540363 0
    outer loop
      vertex 107.773 8.46955 0
      vertex 106.738 6.85789 45
      vertex 106.738 6.85789 0
    endloop
  endfacet
  facet normal -0.142333 0.989819 0
    outer loop
      vertex 111.412 2.80725 0
      vertex 109.516 2.53461 45
      vertex 111.412 2.80725 45
    endloop
  endfacet
  facet normal -0.142333 0.989819 0
    outer loop
      vertex 109.516 2.53461 45
      vertex 111.412 2.80725 0
      vertex 109.516 2.53461 0
    endloop
  endfacet
  facet normal -0.142333 -0.989819 0
    outer loop
      vertex 109.516 9.26539 0
      vertex 111.412 8.99275 45
      vertex 109.516 9.26539 45
    endloop
  endfacet
  facet normal -0.142333 -0.989819 -0
    outer loop
      vertex 111.412 8.99275 45
      vertex 109.516 9.26539 0
      vertex 111.412 8.99275 0
    endloop
  endfacet
  facet normal 1 -0 0
    outer loop
      vertex 106.738 4.94211 45
      vertex 106.738 6.85789 0
      vertex 106.738 6.85789 45
    endloop
  endfacet
  facet normal 1 0 0
    outer loop
      vertex 106.738 6.85789 0
      vertex 106.738 4.94211 45
      vertex 106.738 4.94211 0
    endloop
  endfacet
  facet normal -0.654822 0.755783 0
    outer loop
      vertex 112.86 4.06182 0
      vertex 111.412 2.80725 45
      vertex 112.86 4.06182 45
    endloop
  endfacet
  facet normal -0.654822 0.755783 0
    outer loop
      vertex 111.412 2.80725 45
      vertex 112.86 4.06182 0
      vertex 111.412 2.80725 0
    endloop
  endfacet
  facet normal 0.415345 0.909664 -0
    outer loop
      vertex 109.516 2.53461 0
      vertex 107.773 3.33045 45
      vertex 109.516 2.53461 45
    endloop
  endfacet
  facet normal 0.415345 0.909664 0
    outer loop
      vertex 107.773 3.33045 45
      vertex 109.516 2.53461 0
      vertex 107.773 3.33045 0
    endloop
  endfacet
  facet normal 0.415345 -0.909664 0
    outer loop
      vertex 107.773 8.46955 0
      vertex 109.516 9.26539 45
      vertex 107.773 8.46955 45
    endloop
  endfacet
  facet normal 0.415345 -0.909664 0
    outer loop
      vertex 109.516 9.26539 45
      vertex 107.773 8.46955 0
      vertex 109.516 9.26539 0
    endloop
  endfacet
endsolid OpenSCAD_Model
